<svg width="60" height="60" viewBox="0 0 60 60" fill="none" xmlns="http://www.w3.org/2000/svg">
<path d="M44.7268 50.8093L46.0089 51.035C47.0101 51.2117 48.0419 51.0112 48.9043 50.4728L53.8486 47.3848C55.828 46.1483 57.1898 44.1301 57.5949 41.8316L59.3367 31.9531C59.4544 31.2875 59.0099 30.653 58.3443 30.5358L38.8646 27.1008C38.199 26.9836 37.5646 27.4276 37.4474 28.0932L35.7051 37.9722C35.3 40.2702 35.8892 42.6327 37.3265 44.4715L40.9168 49.0643C41.543 49.8654 42.4434 50.4065 43.445 50.5832L44.7268 50.8093Z" fill="#C4D3D6"/>
<path d="M49.9267 21.3184L47.1902 20.8359L45.8682 28.3355L51.3403 29.3004L52.6628 21.8009L49.9267 21.3184Z" fill="#C4D3D6"/>
<path d="M52.5536 6.42389L49.8171 5.94141L47.1904 20.8384L49.9269 21.3209L52.663 21.8034L55.2896 6.90637L52.5536 6.42389Z" fill="#F4AC03"/>
<path d="M59.5219 4.82985L59.7919 3.29864C59.9091 2.63305 59.4651 1.99859 58.7995 1.8814L48.2375 0.0187585C47.5724 -0.098429 46.9379 0.345602 46.8203 1.01119L46.5502 2.54241L46.2806 4.07363C46.163 4.73922 46.6074 5.37368 47.273 5.49087L57.8345 7.35351C58.5001 7.47069 59.1346 7.02666 59.2522 6.36107L59.5219 4.82985Z" fill="#5DBCD9"/>
<path d="M41.502 34.7695C41.2832 34.3126 40.7357 34.119 40.2784 34.3373L34.6584 37.0235C33.0338 37.6392 31.7475 38.644 30.8251 39.5632V23.5428C30.8251 23.0361 30.4145 22.625 29.9077 22.625C29.401 22.625 28.9899 23.0361 28.9899 23.5428V37.728C28.0675 36.8088 26.7817 35.804 25.1571 35.1883L19.5371 32.5022C19.0798 32.2838 18.5318 32.4774 18.3135 32.9348C18.0951 33.3916 18.2883 33.9395 18.7456 34.1579L24.3409 36.8322C24.3761 36.8509 24.4123 36.8683 24.4507 36.8825C26.9378 37.8022 28.5386 39.9184 28.9899 40.5771V47.5223C28.9899 48.0291 29.401 48.4397 29.9077 48.4397C30.4145 48.4397 30.8251 48.0291 30.8251 47.5223V42.4123C31.2769 41.7536 32.8777 39.6373 35.3643 38.7177C35.4027 38.7035 35.4393 38.6861 35.4746 38.6678L41.0698 35.9935C41.5267 35.7747 41.7203 35.2268 41.502 34.7695Z" fill="#378900"/>
<path d="M49.7271 59.9996H58.5853C59.4102 59.9996 60.0089 59.1971 59.7539 58.4125C59.0856 56.3512 57.1497 54.8612 54.8655 54.8612C54.2461 54.8612 53.6524 54.9706 53.1022 55.1715C51.4986 52.6332 48.6697 50.9459 45.4447 50.9459C44.9576 50.9459 44.4793 50.9857 44.0128 51.0599C43.5445 48.3545 41.188 46.2969 38.3489 46.2969C36.2624 46.2969 34.4355 47.4083 33.4275 49.0714C32.5555 48.1183 31.3012 47.5205 29.9073 47.5205C28.5129 47.5205 27.2591 48.1183 26.3866 49.0714C25.3786 47.4083 23.5517 46.2969 21.4652 46.2969C18.6262 46.2969 16.2696 48.3545 15.8013 51.0599C15.3348 50.9857 14.8565 50.9459 14.3694 50.9459C11.1445 50.9459 8.31596 52.6332 6.71195 55.1715C6.16218 54.9706 5.568 54.8612 4.94865 54.8612C2.66487 54.8612 0.728525 56.3512 0.06019 58.4125C-0.194327 59.1971 0.404428 59.9996 1.22886 59.9996H49.7271Z" fill="#915431"/>
<path d="M13.8802 54.8632C13.8802 55.2687 13.5515 55.5974 13.1459 55.5974C12.7408 55.5974 12.4121 55.2687 12.4121 54.8632C12.4121 54.4576 12.7408 54.1289 13.1459 54.1289C13.5515 54.1289 13.8802 54.4576 13.8802 54.8632Z" fill="#915431"/>
</svg>
