<svg width="235" height="247" viewBox="0 0 235 247" fill="none" xmlns="http://www.w3.org/2000/svg">
<path d="M227.339 119.97C218.78 112.908 206.136 113.231 197.941 120.7L170.223 145.955C166.345 140.652 160.107 137.26 153.064 137.26H123.669C119.973 137.26 116.395 136.629 113.033 135.381C104.727 132.298 88.3194 128.143 71.8016 134.966C68.6508 136.265 65.5107 138.214 62.4661 140.754L33.7524 164.74C29.2628 162.119 23.4113 162.695 19.572 166.534L6.43631 179.67C1.85644 184.245 1.85268 191.665 6.43631 196.245L50.2904 240.101C54.8585 244.672 62.2922 244.67 66.865 240.101L80.0008 226.961C84.5684 222.396 84.5684 214.96 80.0008 210.386L79.5821 209.968L82.7498 206.801C88.7178 200.836 96.7427 197.676 104.83 198.242C124.246 199.5 143.911 197.952 163.286 193.621C170.058 192.109 176.242 188.703 181.171 183.774L228.15 136.791C232.89 132.051 232.522 124.236 227.339 119.97V119.97ZM74.6864 221.647L61.5507 234.786C59.9121 236.427 57.2471 236.423 55.6048 234.786L11.7507 190.93C10.1083 189.284 10.1064 186.633 11.7507 184.985L24.8864 171.849C26.533 170.206 29.1965 170.213 30.8323 171.849C32.3572 173.374 75.0642 216.081 74.6846 215.701C76.3232 217.342 76.3251 220.01 74.6864 221.647V221.647ZM222.836 131.476L175.857 178.459C171.937 182.379 167.023 185.084 161.649 186.288C142.968 190.454 124.003 191.966 105.32 190.74C95.1116 190.064 84.9322 193.981 77.4355 201.486L74.2677 204.654C26.6918 156.74 43.1006 173.266 39.5508 169.691L67.2833 146.524C69.7405 144.476 72.2254 142.924 74.6714 141.911C88.8128 136.071 103.138 139.731 110.418 142.428C114.62 143.988 119.078 144.777 123.669 144.777H153.064C160.784 144.777 166.841 151.051 166.78 158.563C166.765 160.846 164.86 162.703 162.533 162.703H96.4636C94.3879 162.703 92.7051 164.384 92.7051 166.461C92.7051 168.539 94.3879 170.22 96.4636 170.22H162.534C168.975 170.22 174.253 165.011 174.297 158.618C174.311 156.716 174.076 154.848 173.599 153.05L203.005 126.257C208.455 121.284 216.868 121.079 222.56 125.769C224.321 127.218 224.45 129.862 222.836 131.476V131.476Z" fill="white" fill-opacity="0.3"/>
<path d="M170.402 143.762L196.93 119.591C196.93 119.591 196.93 119.591 196.93 119.591C205.677 111.621 219.157 111.276 228.293 118.812C234.16 123.642 234.576 132.487 229.211 137.851L182.232 184.834L181.268 183.87L182.232 184.834C177.103 189.963 170.664 193.51 163.613 195.085C144.102 199.446 124.294 201.007 104.733 199.738L104.725 199.738C97.1005 199.205 89.4927 202.183 83.8103 207.862C83.8103 207.862 83.8102 207.862 83.8102 207.862L81.6814 209.99C86.2052 215.18 85.9999 223.085 81.0616 228.022C81.0615 228.022 81.0613 228.022 81.0612 228.022L67.9259 241.161L67.9253 241.162C62.7675 246.316 54.3843 246.319 49.2297 241.161L49.2294 241.161M170.402 143.762L6.43631 179.67C1.85644 184.245 1.85268 191.665 6.43631 196.245L50.2904 240.101L49.2294 241.161M170.402 143.762C166.221 138.841 160.005 135.76 153.064 135.76H123.669C120.146 135.76 116.744 135.159 113.555 133.975L113.555 133.975C105.115 130.842 88.2654 126.543 71.2297 133.579L170.402 143.762ZM49.2294 241.161L5.37608 197.306C5.37593 197.306 5.37578 197.306 5.37562 197.305C0.20581 192.139 0.21027 183.77 5.37614 178.609M49.2294 241.161L5.37614 178.609M5.37614 178.609L18.5114 165.473L18.5115 165.473C22.5859 161.399 28.654 160.585 33.5639 162.943L61.5044 139.603L61.5052 139.602C64.6474 136.981 67.9161 134.946 71.2289 133.58L5.37614 178.609ZM175.797 158.628C175.747 165.856 169.79 171.72 162.534 171.72H96.4636C93.56 171.72 91.2051 169.368 91.2051 166.461C91.2051 163.555 93.56 161.203 96.4636 161.203H162.533C164.063 161.203 165.271 159.985 165.28 158.553L165.28 158.551C165.334 151.863 159.942 146.277 153.064 146.277H123.669C118.904 146.277 114.27 145.457 109.896 143.834C102.739 141.183 88.8605 137.674 75.2439 143.297C72.9641 144.242 70.6077 145.706 68.2436 147.677L41.7672 169.794L74.2716 202.529L76.3742 200.426C84.1643 192.627 94.7617 188.538 105.418 189.243C123.955 190.459 142.775 188.959 161.322 184.824C166.416 183.683 171.077 181.118 174.796 177.399L221.775 130.416C222.763 129.428 222.684 127.814 221.607 126.927L221.606 126.927C216.489 122.71 208.914 122.896 204.016 127.365L204.016 127.366L175.267 153.56C175.632 155.211 175.81 156.908 175.797 158.628ZM175.797 158.628C175.797 158.628 175.797 158.629 175.797 158.629L174.297 158.618L175.797 158.628ZM60.4899 233.726L60.4894 233.726C59.4393 234.778 57.7239 234.78 56.6646 233.725C56.6642 233.725 56.6639 233.724 56.6636 233.724L12.8125 189.871C12.8124 189.871 12.8123 189.871 12.8122 189.871C11.7539 188.81 11.753 187.106 12.8125 186.044L25.9459 172.911C27.0058 171.853 28.7206 171.859 29.7718 172.91L30.0327 173.171L30.0567 173.195L30.0815 173.219L30.1073 173.245L30.1339 173.272L30.2489 173.387L30.3115 173.449L30.3441 173.482L30.3776 173.515L30.4118 173.55L30.4469 173.585L30.4829 173.621L30.5196 173.657L30.5572 173.695L30.5956 173.733L30.6348 173.773L30.6748 173.813L30.7573 173.895L30.7997 173.938L30.843 173.981L31.217 174.355L31.2672 174.405L31.3182 174.456L31.4224 174.56L31.4756 174.613L31.5296 174.667L31.5843 174.722L31.6397 174.778L31.6959 174.834L31.7528 174.891L31.8688 175.007L31.9279 175.066L31.9876 175.125L32.0481 175.186L32.1093 175.247L32.1712 175.309L32.2338 175.372L32.2971 175.435L32.3611 175.499L32.4911 175.629L32.5571 175.695L32.6238 175.762L32.6912 175.829L32.7592 175.897L32.8279 175.966L32.8973 176.035L33.1813 176.319L33.2539 176.392L33.3271 176.465L33.401 176.539L33.4755 176.613L33.6264 176.764L33.7028 176.841L33.7798 176.918L34.4174 177.555L34.4997 177.638L34.5827 177.72L34.6662 177.804L34.7502 177.888L35.0922 178.23L35.4429 178.581L35.8022 178.94L36.5455 179.683L36.9291 180.067L37.1238 180.262L37.2218 180.36L37.3203 180.458L37.4192 180.557L37.5187 180.656L37.7188 180.857L38.1245 181.262L38.227 181.365L38.3299 181.468L38.4333 181.571L38.5371 181.675L38.6412 181.779L38.7458 181.884L38.9563 182.094L39.1683 182.306L39.2749 182.413L39.3819 182.52L39.597 182.735L39.7051 182.843L39.8136 182.951L39.9225 183.06L40.0317 183.17L40.1413 183.279L40.2513 183.389L40.6947 183.832L40.9184 184.056L41.0308 184.169L41.1435 184.281L41.2565 184.394L41.3698 184.508L41.4835 184.621L41.5974 184.735L42.0564 185.194L42.2877 185.425L42.4037 185.542L42.5201 185.658L42.6367 185.774L42.7536 185.891L42.8708 186.009L42.9882 186.126L43.2239 186.362L43.3421 186.48L43.4606 186.598L43.5793 186.717L43.6983 186.836L43.8175 186.955L43.9369 187.075L44.417 187.555L44.6584 187.796L44.7794 187.917L44.9006 188.038L45.1437 188.282L45.3875 188.525L45.6321 188.77L45.8774 189.015L46.0004 189.138L46.1235 189.261L46.2467 189.385L46.3701 189.508L46.8654 190.003L47.1139 190.252L47.2383 190.376L47.3629 190.501L47.6125 190.75L47.7374 190.875L47.8625 191L48.113 191.251L48.364 191.502L48.867 192.005L48.9929 192.131L49.119 192.257L49.2451 192.383L49.3713 192.509L49.4976 192.635L49.6239 192.762L49.7503 192.888L49.8768 193.015L50.3831 193.521L50.6365 193.774L50.7632 193.901L50.89 194.028L51.0168 194.155L51.1436 194.281L51.2704 194.408L51.3973 194.535L51.5241 194.662L51.651 194.789L51.7778 194.916L51.9047 195.043L52.0315 195.169L52.1584 195.296L52.2852 195.423L52.412 195.55L53.4254 196.563L53.5518 196.69L53.6782 196.816L53.8046 196.942L53.9309 197.069L54.0571 197.195L54.1833 197.321L54.4354 197.573L54.5613 197.699L54.6871 197.825L54.8129 197.951L54.9385 198.076L55.0641 198.202L55.1896 198.327L55.3149 198.453L55.4401 198.578L55.5653 198.703L55.6903 198.828L55.8152 198.953L55.94 199.078L56.0646 199.202L56.1891 199.327L56.4377 199.576L56.5618 199.7L56.6858 199.824L56.8096 199.947L56.9332 200.071L57.1801 200.318L57.4262 200.564L57.549 200.687L57.6717 200.81L57.7942 200.932L57.9164 201.054L58.0385 201.176L58.1604 201.298L58.2821 201.42L58.4037 201.541L58.525 201.663L58.6461 201.784L58.767 201.905L58.8876 202.025L59.0081 202.146L59.1283 202.266L59.2483 202.386L59.3681 202.506L59.4877 202.626L59.607 202.745L59.7261 202.864L59.8449 202.983L59.9635 203.101L60.0818 203.22L60.1999 203.338L60.3177 203.456L60.4353 203.573L60.5525 203.69L60.6696 203.807L60.7863 203.924L60.9028 204.041L61.019 204.157L61.1348 204.273L61.2505 204.388L61.3658 204.504L61.4808 204.619L61.7099 204.848L61.824 204.962L61.9378 205.076L62.0513 205.189L62.1645 205.302L62.2773 205.415L62.3898 205.528L62.6138 205.752L62.7253 205.863L62.8365 205.974L62.9473 206.085L63.0578 206.196L63.1679 206.306L63.2776 206.415L63.387 206.525L63.4961 206.634L63.9285 207.066L64.0356 207.173L64.1424 207.28L64.2488 207.387L64.3547 207.493L64.5655 207.703L64.6703 207.808L64.7746 207.912L64.9821 208.12L65.0852 208.223L65.1879 208.326L65.2902 208.428L65.392 208.53L65.4934 208.631L65.5943 208.732L65.6948 208.833L65.7949 208.933L65.8945 209.032L65.9937 209.131L66.1906 209.328L66.2883 209.426L66.3856 209.523L66.4825 209.62L66.5788 209.717L66.6747 209.812L66.77 209.908L66.8649 210.003L66.9593 210.097L67.1466 210.284L67.3319 210.47L67.5151 210.653L67.606 210.744L67.6963 210.834L67.7861 210.924L67.8753 211.013L67.9641 211.102L68.0522 211.19L68.227 211.365L68.3135 211.451L68.3995 211.537L68.5699 211.708L68.6542 211.792L68.7379 211.876L68.8211 211.959L68.9037 212.042L69.0672 212.205L69.148 212.286L69.2283 212.366L69.5433 212.681L69.6206 212.758L69.6972 212.835L69.7733 212.911L69.8487 212.986L69.9234 213.061L69.9976 213.135L70.0711 213.209L70.144 213.282L70.2162 213.354L70.2878 213.426L70.4291 213.567L70.4987 213.637L70.5677 213.706L70.7037 213.841L70.9676 214.105L71.0954 214.233L71.2205 214.358L71.4622 214.6L71.6926 214.83L71.7483 214.886L71.8033 214.941L71.8576 214.995L71.9112 215.049L71.964 215.102L72.016 215.154L72.0673 215.205L72.1179 215.256L72.2167 215.355L72.2649 215.403L72.3124 215.45L72.3591 215.497L72.4051 215.543L72.4502 215.588L72.4946 215.632L72.5381 215.676L72.5809 215.719L72.6229 215.761L72.664 215.802L72.7044 215.842L72.744 215.882L72.7827 215.921L72.8206 215.958L72.8578 215.996L72.894 216.032L72.9295 216.067L72.9641 216.102L73.0942 216.232L73.1542 216.292L73.1829 216.321L73.2107 216.349L73.5358 216.674L73.5601 216.698L73.5807 216.718L73.6105 216.748L73.6231 216.761C74.6786 217.818 74.6768 219.537 73.6264 220.586L74.6864 221.647L73.6256 220.586L60.4899 233.726ZM73.6264 216.758C73.6279 216.025 73.8833 215.546 74.2163 215.233L74.6842 215.701L73.6264 216.758ZM153.064 144.777C160.784 144.777 166.841 151.051 166.78 158.563L74.6714 141.911C88.8128 136.071 103.138 139.731 110.418 142.428C114.62 143.988 119.078 144.777 123.669 144.777H153.064ZM39.6286 169.784L39.9761 170.2L39.6286 169.784Z" stroke="white" stroke-opacity="0.3" stroke-width="3"/>
<path d="M132.332 122.581C161.081 122.581 184.476 99.194 184.483 70.4446C184.483 68.3751 182.803 66.6862 180.725 66.6862H136.105V22.0708C136.105 19.9937 134.41 18.3086 132.332 18.3086C103.594 18.3086 80.2129 41.6919 80.2129 70.43C80.2129 99.1865 103.594 122.581 132.332 122.581V122.581ZM128.589 25.9796V70.4446C128.589 72.5221 130.269 74.203 132.347 74.203H176.808C174.885 97.054 155.671 115.064 132.332 115.064C107.738 115.064 87.7293 95.0432 87.7293 70.43C87.7298 47.0946 105.74 27.8884 128.589 25.9796V25.9796Z" fill="white" fill-opacity="0.3"/>
<path d="M185.983 70.445V70.4446C185.983 67.549 183.634 65.1862 180.725 65.1862H137.605V22.0708C137.605 19.16 135.234 16.8086 132.332 16.8086C102.766 16.8086 78.7129 40.8636 78.7129 70.43C78.7129 100.014 102.765 124.081 132.332 124.081C161.91 124.081 185.976 100.023 185.983 70.445ZM127.089 27.6412V70.4446C127.089 73.3506 129.441 75.703 132.347 75.703H175.146C172.536 97.0069 154.328 113.564 132.332 113.564C108.567 113.564 89.2293 94.2157 89.2293 70.43C89.2297 48.4379 105.787 30.2369 127.089 27.6412Z" stroke="white" stroke-opacity="0.3" stroke-width="3"/>
<path d="M147.658 58.8907H196.032C198.109 58.8907 199.79 57.1952 199.79 55.1177C199.79 26.3871 176.403 3.00752 147.658 3C145.584 3 143.899 4.6842 143.899 6.75844V55.1323C143.899 57.2093 145.58 58.8907 147.658 58.8907V58.8907ZM151.416 10.6743C173.03 12.491 190.314 29.7705 192.12 51.3738H151.416V10.6743Z" fill="white" fill-opacity="0.3"/>
<path d="M147.658 1.5H147.658C144.755 1.5 142.399 3.85578 142.399 6.75844V55.1323C142.399 58.0376 144.752 60.3907 147.658 60.3907H196.032C198.945 60.3907 201.29 58.0161 201.29 55.1177C201.29 25.5581 177.231 1.50774 147.658 1.5ZM152.916 49.8738V12.3367C172.498 14.7327 188.071 30.3031 190.458 49.8738H152.916Z" stroke="white" stroke-opacity="0.3" stroke-width="3"/>
</svg>
