<svg width="112" height="100" viewBox="0 0 112 100" fill="none" xmlns="http://www.w3.org/2000/svg">
<g filter="url(#filter0_d_300_341)">
<circle cx="50" cy="50" r="36" fill="url(#paint0_linear_300_341)"/>
<mask id="path-2-outside-1_300_341" maskUnits="userSpaceOnUse" x="20.4385" y="33.2578" width="59" height="45" fill="black">
<rect fill="white" x="20.4385" y="33.2578" width="59" height="45"/>
<path d="M64.8571 39.8978C64.0292 39.9057 63.2035 39.9746 62.3869 40.1057C61.5702 40.2368 60.766 40.4369 59.981 40.6911C58.4121 41.2054 56.9177 41.9546 55.5917 42.9356C54.2577 43.9098 53.0796 45.0784 51.9219 46.2583C50.7664 47.4415 49.6132 48.5819 48.356 49.6725C50.894 51.2083 53.7607 52.0933 56.7065 52.4131C59.65 52.742 62.6613 52.4244 65.475 51.5124C68.2897 50.6014 70.9068 49.0859 73.089 47.0935C75.2713 45.1021 77.0695 42.8633 78.1832 40.1294C76.1692 38.2466 73.7713 36.7785 71.1768 35.853C68.5823 34.924 65.7924 34.5623 63.0488 34.7511C61.6753 34.8471 60.3165 35.1059 58.9961 35.4924C57.6779 35.888 56.4016 36.4203 55.1975 37.0859C54.6 37.4239 54.016 37.7855 53.458 38.1901C52.9012 38.5947 52.3579 39.0185 51.836 39.4717C50.789 40.3724 49.804 41.35 48.8293 42.3412C47.8534 43.3312 46.8842 44.3359 45.8654 45.2965C45.356 45.7768 44.8353 46.247 44.2931 46.6934C43.7521 47.1421 43.1941 47.5715 42.6068 47.9625C42.4611 48.062 42.3153 48.1614 42.164 48.2519C42.0138 48.3445 41.8658 48.4406 41.7133 48.5287L41.2513 48.7887C41.0989 48.878 40.9373 48.9503 40.7803 49.0317L40.5431 49.1515C40.4641 49.1899 40.3816 49.2238 40.3014 49.26C40.1388 49.33 39.9795 49.4058 39.8157 49.4724C39.4848 49.599 39.1561 49.7312 38.8172 49.8318C38.4829 49.9482 38.1361 50.0262 37.795 50.1189L37.2743 50.2251L37.0134 50.2771L36.7502 50.3167C36.0499 50.4218 35.3417 50.4704 34.6335 50.4636C33.2182 50.45 31.8074 50.2172 30.4611 49.7843C29.7879 49.5674 29.1316 49.2995 28.4991 48.9842C27.8677 48.6655 27.2589 48.3027 26.6794 47.8993C24.3684 46.2718 22.5364 43.9708 21.4972 41.3387L21.4385 41.1884L21.5684 41.0946C23.51 39.6898 25.8447 38.8795 28.2156 38.6693C30.5898 38.4591 33.0104 38.8569 35.1983 39.7881C36.2916 40.256 37.3263 40.8561 38.2886 41.5523C39.2487 42.2519 40.1263 43.0588 40.9283 43.9313C42.5243 45.6864 43.7939 47.7184 44.7607 49.8736C45.2476 50.9507 45.6553 52.0627 45.9919 53.1952C46.1647 53.7602 46.3082 54.3332 46.4449 54.9073C46.5714 55.4837 46.69 56.0635 46.7792 56.6466C46.9565 57.813 47.0943 58.9827 47.1971 60.1558C47.2559 60.7412 47.2943 61.3289 47.3417 61.9154C47.379 62.5031 47.4242 63.0896 47.4535 63.6773C47.5857 66.0269 47.6602 68.3788 47.6839 70.7317C47.711 73.0836 47.6851 75.4366 47.5947 77.7873C47.6252 76.6119 47.6376 75.4354 47.6376 74.2601C47.6331 73.0847 47.6229 71.9082 47.597 70.7329C47.5495 68.3822 47.4524 66.0326 47.2976 63.6864C47.2626 63.0998 47.2118 62.5144 47.1689 61.9278C47.1147 61.3424 47.0717 60.757 47.0074 60.1727C46.8933 59.0041 46.7442 57.8378 46.5567 56.6817C46.3624 55.5267 46.0913 54.3852 45.7502 53.2652C45.4102 52.1452 45.0002 51.0467 44.5123 49.9833C43.5443 47.8563 42.2769 45.8571 40.6967 44.1404C39.9027 43.2871 39.0375 42.4994 38.0921 41.8202C37.1455 41.1432 36.1312 40.5634 35.0605 40.1125C32.9178 39.2163 30.5605 38.8445 28.2506 39.0626C25.9464 39.2818 23.7551 39.9096 21.8835 41.2715C22.8967 43.8222 24.6825 45.9701 26.9268 47.5444C27.4904 47.9354 28.0812 48.2858 28.6934 48.5932C29.3067 48.8972 29.9437 49.156 30.5966 49.3651C31.9023 49.7821 33.269 50.0047 34.638 50.0149C35.3225 50.0206 36.007 49.972 36.6824 49.8691L36.9355 49.8307L37.1873 49.7798L37.69 49.6759C38.0198 49.5854 38.3541 49.5109 38.6772 49.3967C39.0047 49.2984 39.3221 49.1695 39.6418 49.0475C39.7999 48.9831 39.9547 48.9096 40.1117 48.8407C40.1896 48.8056 40.2687 48.7729 40.3455 48.7344L40.5748 48.618C40.7261 48.5389 40.8831 48.4677 41.0311 48.3807L41.4784 48.1275C41.6263 48.0405 41.7698 47.9467 41.9166 47.8563C42.0635 47.7682 42.2058 47.671 42.347 47.5738C42.9185 47.1918 43.4641 46.7702 43.9938 46.3295C44.5258 45.891 45.0386 45.4253 45.5412 44.9496C46.5488 43.9991 47.5089 42.9933 48.4893 42.0021C49.4686 41.0098 50.4648 40.0255 51.5311 39.1123C52.0619 38.6535 52.6177 38.2206 53.1881 37.8081C53.7585 37.3956 54.3605 37.0238 54.975 36.6791C56.2095 35.9999 57.5175 35.4574 58.8673 35.0551C60.2193 34.6618 61.6109 34.4007 63.016 34.3046C65.824 34.117 68.6715 34.4922 71.3213 35.4461C73.9701 36.3966 76.4155 37.9008 78.4667 39.8266L78.5717 39.9249L78.5175 40.056C78.2261 40.751 77.903 41.4325 77.5427 42.0948C77.1745 42.7525 76.778 43.3933 76.3432 44.0093C75.9027 44.6207 75.4362 45.2129 74.9358 45.7746C74.4309 46.3329 73.9034 46.8708 73.3443 47.3749C71.109 49.3922 68.4388 50.9156 65.5755 51.8243C62.7122 52.7329 59.658 53.0358 56.676 52.6855C53.6941 52.343 50.7935 51.3293 48.2464 49.7482L48.1233 49.6725L48.2329 49.5798C49.4889 48.5107 50.6376 47.3184 51.8067 46.1441C52.9769 44.9744 54.1719 43.8115 55.525 42.8429C56.8714 41.8688 58.3805 41.1251 59.9629 40.6301C60.7547 40.3849 61.5646 40.195 62.3835 40.0741C63.2012 39.9543 64.0303 39.8955 64.8571 39.8978Z"/>
</mask>
<path d="M64.8571 39.8978C64.0292 39.9057 63.2035 39.9746 62.3869 40.1057C61.5702 40.2368 60.766 40.4369 59.981 40.6911C58.4121 41.2054 56.9177 41.9546 55.5917 42.9356C54.2577 43.9098 53.0796 45.0784 51.9219 46.2583C50.7664 47.4415 49.6132 48.5819 48.356 49.6725C50.894 51.2083 53.7607 52.0933 56.7065 52.4131C59.65 52.742 62.6613 52.4244 65.475 51.5124C68.2897 50.6014 70.9068 49.0859 73.089 47.0935C75.2713 45.1021 77.0695 42.8633 78.1832 40.1294C76.1692 38.2466 73.7713 36.7785 71.1768 35.853C68.5823 34.924 65.7924 34.5623 63.0488 34.7511C61.6753 34.8471 60.3165 35.1059 58.9961 35.4924C57.6779 35.888 56.4016 36.4203 55.1975 37.0859C54.6 37.4239 54.016 37.7855 53.458 38.1901C52.9012 38.5947 52.3579 39.0185 51.836 39.4717C50.789 40.3724 49.804 41.35 48.8293 42.3412C47.8534 43.3312 46.8842 44.3359 45.8654 45.2965C45.356 45.7768 44.8353 46.247 44.2931 46.6934C43.7521 47.1421 43.1941 47.5715 42.6068 47.9625C42.4611 48.062 42.3153 48.1614 42.164 48.2519C42.0138 48.3445 41.8658 48.4406 41.7133 48.5287L41.2513 48.7887C41.0989 48.878 40.9373 48.9503 40.7803 49.0317L40.5431 49.1515C40.4641 49.1899 40.3816 49.2238 40.3014 49.26C40.1388 49.33 39.9795 49.4058 39.8157 49.4724C39.4848 49.599 39.1561 49.7312 38.8172 49.8318C38.4829 49.9482 38.1361 50.0262 37.795 50.1189L37.2743 50.2251L37.0134 50.2771L36.7502 50.3167C36.0499 50.4218 35.3417 50.4704 34.6335 50.4636C33.2182 50.45 31.8074 50.2172 30.4611 49.7843C29.7879 49.5674 29.1316 49.2995 28.4991 48.9842C27.8677 48.6655 27.2589 48.3027 26.6794 47.8993C24.3684 46.2718 22.5364 43.9708 21.4972 41.3387L21.4385 41.1884L21.5684 41.0946C23.51 39.6898 25.8447 38.8795 28.2156 38.6693C30.5898 38.4591 33.0104 38.8569 35.1983 39.7881C36.2916 40.256 37.3263 40.8561 38.2886 41.5523C39.2487 42.2519 40.1263 43.0588 40.9283 43.9313C42.5243 45.6864 43.7939 47.7184 44.7607 49.8736C45.2476 50.9507 45.6553 52.0627 45.9919 53.1952C46.1647 53.7602 46.3082 54.3332 46.4449 54.9073C46.5714 55.4837 46.69 56.0635 46.7792 56.6466C46.9565 57.813 47.0943 58.9827 47.1971 60.1558C47.2559 60.7412 47.2943 61.3289 47.3417 61.9154C47.379 62.5031 47.4242 63.0896 47.4535 63.6773C47.5857 66.0269 47.6602 68.3788 47.6839 70.7317C47.711 73.0836 47.6851 75.4366 47.5947 77.7873C47.6252 76.6119 47.6376 75.4354 47.6376 74.2601C47.6331 73.0847 47.6229 71.9082 47.597 70.7329C47.5495 68.3822 47.4524 66.0326 47.2976 63.6864C47.2626 63.0998 47.2118 62.5144 47.1689 61.9278C47.1147 61.3424 47.0717 60.757 47.0074 60.1727C46.8933 59.0041 46.7442 57.8378 46.5567 56.6817C46.3624 55.5267 46.0913 54.3852 45.7502 53.2652C45.4102 52.1452 45.0002 51.0467 44.5123 49.9833C43.5443 47.8563 42.2769 45.8571 40.6967 44.1404C39.9027 43.2871 39.0375 42.4994 38.0921 41.8202C37.1455 41.1432 36.1312 40.5634 35.0605 40.1125C32.9178 39.2163 30.5605 38.8445 28.2506 39.0626C25.9464 39.2818 23.7551 39.9096 21.8835 41.2715C22.8967 43.8222 24.6825 45.9701 26.9268 47.5444C27.4904 47.9354 28.0812 48.2858 28.6934 48.5932C29.3067 48.8972 29.9437 49.156 30.5966 49.3651C31.9023 49.7821 33.269 50.0047 34.638 50.0149C35.3225 50.0206 36.007 49.972 36.6824 49.8691L36.9355 49.8307L37.1873 49.7798L37.69 49.6759C38.0198 49.5854 38.3541 49.5109 38.6772 49.3967C39.0047 49.2984 39.3221 49.1695 39.6418 49.0475C39.7999 48.9831 39.9547 48.9096 40.1117 48.8407C40.1896 48.8056 40.2687 48.7729 40.3455 48.7344L40.5748 48.618C40.7261 48.5389 40.8831 48.4677 41.0311 48.3807L41.4784 48.1275C41.6263 48.0405 41.7698 47.9467 41.9166 47.8563C42.0635 47.7682 42.2058 47.671 42.347 47.5738C42.9185 47.1918 43.4641 46.7702 43.9938 46.3295C44.5258 45.891 45.0386 45.4253 45.5412 44.9496C46.5488 43.9991 47.5089 42.9933 48.4893 42.0021C49.4686 41.0098 50.4648 40.0255 51.5311 39.1123C52.0619 38.6535 52.6177 38.2206 53.1881 37.8081C53.7585 37.3956 54.3605 37.0238 54.975 36.6791C56.2095 35.9999 57.5175 35.4574 58.8673 35.0551C60.2193 34.6618 61.6109 34.4007 63.016 34.3046C65.824 34.117 68.6715 34.4922 71.3213 35.4461C73.9701 36.3966 76.4155 37.9008 78.4667 39.8266L78.5717 39.9249L78.5175 40.056C78.2261 40.751 77.903 41.4325 77.5427 42.0948C77.1745 42.7525 76.778 43.3933 76.3432 44.0093C75.9027 44.6207 75.4362 45.2129 74.9358 45.7746C74.4309 46.3329 73.9034 46.8708 73.3443 47.3749C71.109 49.3922 68.4388 50.9156 65.5755 51.8243C62.7122 52.7329 59.658 53.0358 56.676 52.6855C53.6941 52.343 50.7935 51.3293 48.2464 49.7482L48.1233 49.6725L48.2329 49.5798C49.4889 48.5107 50.6376 47.3184 51.8067 46.1441C52.9769 44.9744 54.1719 43.8115 55.525 42.8429C56.8714 41.8688 58.3805 41.1251 59.9629 40.6301C60.7547 40.3849 61.5646 40.195 62.3835 40.0741C63.2012 39.9543 64.0303 39.8955 64.8571 39.8978Z" fill="white"/>
<path d="M64.8571 39.8978C64.0292 39.9057 63.2035 39.9746 62.3869 40.1057C61.5702 40.2368 60.766 40.4369 59.981 40.6911C58.4121 41.2054 56.9177 41.9546 55.5917 42.9356C54.2577 43.9098 53.0796 45.0784 51.9219 46.2583C50.7664 47.4415 49.6132 48.5819 48.356 49.6725C50.894 51.2083 53.7607 52.0933 56.7065 52.4131C59.65 52.742 62.6613 52.4244 65.475 51.5124C68.2897 50.6014 70.9068 49.0859 73.089 47.0935C75.2713 45.1021 77.0695 42.8633 78.1832 40.1294C76.1692 38.2466 73.7713 36.7785 71.1768 35.853C68.5823 34.924 65.7924 34.5623 63.0488 34.7511C61.6753 34.8471 60.3165 35.1059 58.9961 35.4924C57.6779 35.888 56.4016 36.4203 55.1975 37.0859C54.6 37.4239 54.016 37.7855 53.458 38.1901C52.9012 38.5947 52.3579 39.0185 51.836 39.4717C50.789 40.3724 49.804 41.35 48.8293 42.3412C47.8534 43.3312 46.8842 44.3359 45.8654 45.2965C45.356 45.7768 44.8353 46.247 44.2931 46.6934C43.7521 47.1421 43.1941 47.5715 42.6068 47.9625C42.4611 48.062 42.3153 48.1614 42.164 48.2519C42.0138 48.3445 41.8658 48.4406 41.7133 48.5287L41.2513 48.7887C41.0989 48.878 40.9373 48.9503 40.7803 49.0317L40.5431 49.1515C40.4641 49.1899 40.3816 49.2238 40.3014 49.26C40.1388 49.33 39.9795 49.4058 39.8157 49.4724C39.4848 49.599 39.1561 49.7312 38.8172 49.8318C38.4829 49.9482 38.1361 50.0262 37.795 50.1189L37.2743 50.2251L37.0134 50.2771L36.7502 50.3167C36.0499 50.4218 35.3417 50.4704 34.6335 50.4636C33.2182 50.45 31.8074 50.2172 30.4611 49.7843C29.7879 49.5674 29.1316 49.2995 28.4991 48.9842C27.8677 48.6655 27.2589 48.3027 26.6794 47.8993C24.3684 46.2718 22.5364 43.9708 21.4972 41.3387L21.4385 41.1884L21.5684 41.0946C23.51 39.6898 25.8447 38.8795 28.2156 38.6693C30.5898 38.4591 33.0104 38.8569 35.1983 39.7881C36.2916 40.256 37.3263 40.8561 38.2886 41.5523C39.2487 42.2519 40.1263 43.0588 40.9283 43.9313C42.5243 45.6864 43.7939 47.7184 44.7607 49.8736C45.2476 50.9507 45.6553 52.0627 45.9919 53.1952C46.1647 53.7602 46.3082 54.3332 46.4449 54.9073C46.5714 55.4837 46.69 56.0635 46.7792 56.6466C46.9565 57.813 47.0943 58.9827 47.1971 60.1558C47.2559 60.7412 47.2943 61.3289 47.3417 61.9154C47.379 62.5031 47.4242 63.0896 47.4535 63.6773C47.5857 66.0269 47.6602 68.3788 47.6839 70.7317C47.711 73.0836 47.6851 75.4366 47.5947 77.7873C47.6252 76.6119 47.6376 75.4354 47.6376 74.2601C47.6331 73.0847 47.6229 71.9082 47.597 70.7329C47.5495 68.3822 47.4524 66.0326 47.2976 63.6864C47.2626 63.0998 47.2118 62.5144 47.1689 61.9278C47.1147 61.3424 47.0717 60.757 47.0074 60.1727C46.8933 59.0041 46.7442 57.8378 46.5567 56.6817C46.3624 55.5267 46.0913 54.3852 45.7502 53.2652C45.4102 52.1452 45.0002 51.0467 44.5123 49.9833C43.5443 47.8563 42.2769 45.8571 40.6967 44.1404C39.9027 43.2871 39.0375 42.4994 38.0921 41.8202C37.1455 41.1432 36.1312 40.5634 35.0605 40.1125C32.9178 39.2163 30.5605 38.8445 28.2506 39.0626C25.9464 39.2818 23.7551 39.9096 21.8835 41.2715C22.8967 43.8222 24.6825 45.9701 26.9268 47.5444C27.4904 47.9354 28.0812 48.2858 28.6934 48.5932C29.3067 48.8972 29.9437 49.156 30.5966 49.3651C31.9023 49.7821 33.269 50.0047 34.638 50.0149C35.3225 50.0206 36.007 49.972 36.6824 49.8691L36.9355 49.8307L37.1873 49.7798L37.69 49.6759C38.0198 49.5854 38.3541 49.5109 38.6772 49.3967C39.0047 49.2984 39.3221 49.1695 39.6418 49.0475C39.7999 48.9831 39.9547 48.9096 40.1117 48.8407C40.1896 48.8056 40.2687 48.7729 40.3455 48.7344L40.5748 48.618C40.7261 48.5389 40.8831 48.4677 41.0311 48.3807L41.4784 48.1275C41.6263 48.0405 41.7698 47.9467 41.9166 47.8563C42.0635 47.7682 42.2058 47.671 42.347 47.5738C42.9185 47.1918 43.4641 46.7702 43.9938 46.3295C44.5258 45.891 45.0386 45.4253 45.5412 44.9496C46.5488 43.9991 47.5089 42.9933 48.4893 42.0021C49.4686 41.0098 50.4648 40.0255 51.5311 39.1123C52.0619 38.6535 52.6177 38.2206 53.1881 37.8081C53.7585 37.3956 54.3605 37.0238 54.975 36.6791C56.2095 35.9999 57.5175 35.4574 58.8673 35.0551C60.2193 34.6618 61.6109 34.4007 63.016 34.3046C65.824 34.117 68.6715 34.4922 71.3213 35.4461C73.9701 36.3966 76.4155 37.9008 78.4667 39.8266L78.5717 39.9249L78.5175 40.056C78.2261 40.751 77.903 41.4325 77.5427 42.0948C77.1745 42.7525 76.778 43.3933 76.3432 44.0093C75.9027 44.6207 75.4362 45.2129 74.9358 45.7746C74.4309 46.3329 73.9034 46.8708 73.3443 47.3749C71.109 49.3922 68.4388 50.9156 65.5755 51.8243C62.7122 52.7329 59.658 53.0358 56.676 52.6855C53.6941 52.343 50.7935 51.3293 48.2464 49.7482L48.1233 49.6725L48.2329 49.5798C49.4889 48.5107 50.6376 47.3184 51.8067 46.1441C52.9769 44.9744 54.1719 43.8115 55.525 42.8429C56.8714 41.8688 58.3805 41.1251 59.9629 40.6301C60.7547 40.3849 61.5646 40.195 62.3835 40.0741C63.2012 39.9543 64.0303 39.8955 64.8571 39.8978Z" stroke="white" stroke-width="1.125" mask="url(#path-2-outside-1_300_341)"/>
</g>
<defs>
<filter id="filter0_d_300_341" x="-11.1429" y="-8" width="122.286" height="122.286" filterUnits="userSpaceOnUse" color-interpolation-filters="sRGB">
<feFlood flood-opacity="0" result="BackgroundImageFix"/>
<feColorMatrix in="SourceAlpha" type="matrix" values="0 0 0 0 0 0 0 0 0 0 0 0 0 0 0 0 0 0 127 0" result="hardAlpha"/>
<feOffset dy="3.14286"/>
<feGaussianBlur stdDeviation="12.5714"/>
<feComposite in2="hardAlpha" operator="out"/>
<feColorMatrix type="matrix" values="0 0 0 0 0.104167 0 0 0 0 0.066116 0 0 0 0 0.030816 0 0 0 0.12 0"/>
<feBlend mode="normal" in2="BackgroundImageFix" result="effect1_dropShadow_300_341"/>
<feBlend mode="normal" in="SourceGraphic" in2="effect1_dropShadow_300_341" result="shape"/>
</filter>
<linearGradient id="paint0_linear_300_341" x1="14" y1="27.5" x2="88.4306" y2="32.7622" gradientUnits="userSpaceOnUse">
<stop stop-color="#30C917"/>
<stop offset="1" stop-color="#279A13"/>
</linearGradient>
</defs>
</svg>
