<svg width="426" height="382" viewBox="0 0 426 382" fill="none" xmlns="http://www.w3.org/2000/svg">
<mask id="path-1-outside-1_300_91" maskUnits="userSpaceOnUse" x="-147.537" y="-50.2649" width="584.041" height="486.171" fill="black">
<rect fill="white" x="-147.537" y="-50.2649" width="584.041" height="486.171"/>
<path d="M302.937 76.786C295.621 75.4264 288.22 74.6089 280.791 74.3553C273.362 74.1016 265.923 74.4775 258.561 75.3649C243.835 77.1916 229.362 81.2202 215.973 87.5828C202.526 93.872 190.118 102.145 177.87 110.552C165.635 118.993 153.5 127.671 140.529 135.12L140.702 133.601C160.435 151.529 184.014 165.19 209.443 173.097C234.836 181.079 261.944 183.477 288.334 180.291C314.732 177.117 340.431 168.268 363.118 154.463C385.802 140.667 405.485 121.916 420.028 99.7271L420.07 101.836C405.558 81.7531 386.943 64.6651 365.658 52.0222C344.379 39.3494 320.397 31.3431 295.873 28.2709C283.593 26.7469 271.162 26.6836 258.849 27.8129C246.54 29.0259 234.364 31.5171 222.595 35.3093C216.742 37.2581 210.967 39.4396 205.347 42.0447C199.738 44.6517 194.214 47.4516 188.829 50.5478C178.039 56.6843 167.665 63.6059 157.356 70.6647C147.04 77.7116 136.757 84.8997 126.113 91.6133C120.791 94.9701 115.387 98.2177 109.834 101.219C104.288 104.242 98.6251 107.066 92.7696 109.501C91.3128 110.127 89.856 110.752 88.365 111.289C86.88 111.847 85.4092 112.438 83.9121 112.953L79.3888 114.448C77.8898 114.972 76.3403 115.331 74.8151 115.777L72.5163 116.425C71.7526 116.627 70.9668 116.784 70.197 116.964C68.6415 117.301 67.1062 117.694 65.5465 117.999C62.4091 118.545 59.2818 119.143 56.1195 119.445C52.9698 119.895 49.7768 119.984 46.6082 120.212L41.8323 120.25L39.4413 120.258L37.0518 120.153C30.6939 119.871 24.3637 119.077 18.1292 117.794C5.67007 115.231 -6.37067 110.742 -17.4982 104.6C-23.061 101.524 -28.3866 98.0287 -33.421 94.1557C-38.4396 90.2547 -43.1828 86.004 -47.5968 81.4451C-65.1696 63.1017 -77.3556 39.6444 -81.9764 14.6356L-82.2349 13.2084L-80.9274 12.6054C-61.3772 3.56768 -39.3865 0.451607 -18.1131 2.69081C3.19014 4.93586 23.8521 12.6235 41.541 24.6142C50.3765 30.6285 58.4657 37.7076 65.7515 45.5092C73.0115 53.3368 79.359 61.9689 84.9258 71.0486C95.9721 89.2839 103.661 109.398 108.468 130.075C110.902 140.415 112.579 150.927 113.592 161.496C114.141 166.778 114.417 172.08 114.631 177.379C114.752 182.681 114.797 187.999 114.577 193.297C114.127 203.89 113.323 214.444 112.204 224.968C111.712 230.233 111.036 235.482 110.442 240.737C109.756 245.985 109.142 251.236 108.386 256.47C105.495 277.421 102.092 298.293 98.2391 319.087C94.4178 339.876 90.1264 360.584 85.271 381.161C87.5692 370.847 89.7099 360.492 91.7391 350.126C93.7285 339.752 95.67 329.358 97.4701 318.946C101.11 298.132 104.31 277.241 106.996 256.281C107.7 251.047 108.262 245.796 108.896 240.549C109.429 235.292 110.061 230.054 110.502 224.79C111.513 214.286 112.212 203.742 112.554 193.222C112.835 182.699 112.414 172.164 111.339 161.697C110.274 151.232 108.555 140.835 106.087 130.613C101.222 110.183 93.4958 90.3619 82.5226 72.4928C76.9923 63.5963 70.7213 55.155 63.5557 47.5322C56.3762 39.9274 48.4312 33.0628 39.7656 27.237C22.4148 15.6333 2.26578 8.28415 -18.4833 6.22003C-39.1845 4.17562 -60.4947 7.19719 -79.3531 15.977L-78.304 13.9469C-73.7718 38.1932 -61.8792 60.9825 -44.8024 78.7423C-40.5064 83.1642 -35.9011 87.2741 -31.0324 91.0423C-26.1478 94.7825 -20.976 98.1649 -15.5789 101.136C-4.78265 107.068 6.88711 111.392 18.9436 113.845C24.9709 115.076 31.0919 115.83 37.2268 116.089L39.5246 116.187L41.834 116.173L46.4466 116.124C49.5116 115.896 52.5892 115.815 55.6354 115.366C58.6942 115.064 61.716 114.476 64.746 113.951C66.2519 113.656 67.7435 113.275 69.2473 112.938C69.9952 112.764 70.7491 112.611 71.4929 112.405L73.7161 111.774C75.1877 111.338 76.6953 110.981 78.1506 110.469L82.5326 109.008C83.9879 108.496 85.415 107.917 86.8662 107.373C88.3135 106.849 89.7365 106.237 91.1496 105.624C96.8499 103.241 102.389 100.465 107.823 97.4926C113.272 94.5436 118.598 91.3222 123.853 87.9936C134.38 81.3502 144.584 74.1365 154.943 67.0874C165.293 60.0265 175.779 53.0646 186.76 46.8515C192.234 43.7211 197.883 40.8629 203.626 38.2095C209.369 35.5561 215.321 33.3161 221.335 31.3368C233.396 27.4776 245.869 24.9513 258.468 23.7331C271.072 22.5986 283.796 22.6985 296.355 24.2771C321.445 27.4704 345.911 35.6958 367.636 48.6834C389.356 61.6392 408.327 79.1281 423.093 99.6544L423.85 100.703L423.145 101.766C419.375 107.393 415.349 112.846 411.028 118.065C406.645 123.23 402.042 128.197 397.143 132.879C392.202 137.511 387.066 141.929 381.683 146.019C376.266 150.071 370.685 153.905 364.883 157.385C341.685 171.318 315.505 180.145 288.682 183.216C261.859 186.286 234.399 183.685 208.704 175.446C182.995 167.278 159.162 153.329 139.428 134.987L138.472 134.107L139.599 133.478C152.522 126.217 164.712 117.685 177.05 109.346C189.391 101.05 201.938 92.8566 215.545 86.6504C229.102 80.3827 243.695 76.4292 258.507 74.7954C265.913 73.9994 273.384 73.7231 280.815 74.0703C288.235 74.4256 295.648 75.3386 302.937 76.786Z"/>
</mask>
<path d="M302.937 76.786C295.621 75.4264 288.22 74.6089 280.791 74.3553C273.362 74.1016 265.923 74.4775 258.561 75.3649C243.835 77.1916 229.362 81.2202 215.973 87.5828C202.526 93.872 190.118 102.145 177.87 110.552C165.635 118.993 153.5 127.671 140.529 135.12L140.702 133.601C160.435 151.529 184.014 165.19 209.443 173.097C234.836 181.079 261.944 183.477 288.334 180.291C314.732 177.117 340.431 168.268 363.118 154.463C385.802 140.667 405.485 121.916 420.028 99.7271L420.07 101.836C405.558 81.7531 386.943 64.6651 365.658 52.0222C344.379 39.3494 320.397 31.3431 295.873 28.2709C283.593 26.7469 271.162 26.6836 258.849 27.8129C246.54 29.0259 234.364 31.5171 222.595 35.3093C216.742 37.2581 210.967 39.4396 205.347 42.0447C199.738 44.6517 194.214 47.4516 188.829 50.5478C178.039 56.6843 167.665 63.6059 157.356 70.6647C147.04 77.7116 136.757 84.8997 126.113 91.6133C120.791 94.9701 115.387 98.2177 109.834 101.219C104.288 104.242 98.6251 107.066 92.7696 109.501C91.3128 110.127 89.856 110.752 88.365 111.289C86.88 111.847 85.4092 112.438 83.9121 112.953L79.3888 114.448C77.8898 114.972 76.3403 115.331 74.8151 115.777L72.5163 116.425C71.7526 116.627 70.9668 116.784 70.197 116.964C68.6415 117.301 67.1062 117.694 65.5465 117.999C62.4091 118.545 59.2818 119.143 56.1195 119.445C52.9698 119.895 49.7768 119.984 46.6082 120.212L41.8323 120.25L39.4413 120.258L37.0518 120.153C30.6939 119.871 24.3637 119.077 18.1292 117.794C5.67007 115.231 -6.37067 110.742 -17.4982 104.6C-23.061 101.524 -28.3866 98.0287 -33.421 94.1557C-38.4396 90.2547 -43.1828 86.004 -47.5968 81.4451C-65.1696 63.1017 -77.3556 39.6444 -81.9764 14.6356L-82.2349 13.2084L-80.9274 12.6054C-61.3772 3.56768 -39.3865 0.451607 -18.1131 2.69081C3.19014 4.93586 23.8521 12.6235 41.541 24.6142C50.3765 30.6285 58.4657 37.7076 65.7515 45.5092C73.0115 53.3368 79.359 61.9689 84.9258 71.0486C95.9721 89.2839 103.661 109.398 108.468 130.075C110.902 140.415 112.579 150.927 113.592 161.496C114.141 166.778 114.417 172.08 114.631 177.379C114.752 182.681 114.797 187.999 114.577 193.297C114.127 203.89 113.323 214.444 112.204 224.968C111.712 230.233 111.036 235.482 110.442 240.737C109.756 245.985 109.142 251.236 108.386 256.47C105.495 277.421 102.092 298.293 98.2391 319.087C94.4178 339.876 90.1264 360.584 85.271 381.161C87.5692 370.847 89.7099 360.492 91.7391 350.126C93.7285 339.752 95.67 329.358 97.4701 318.946C101.11 298.132 104.31 277.241 106.996 256.281C107.7 251.047 108.262 245.796 108.896 240.549C109.429 235.292 110.061 230.054 110.502 224.79C111.513 214.286 112.212 203.742 112.554 193.222C112.835 182.699 112.414 172.164 111.339 161.697C110.274 151.232 108.555 140.835 106.087 130.613C101.222 110.183 93.4958 90.3619 82.5226 72.4928C76.9923 63.5963 70.7213 55.155 63.5557 47.5322C56.3762 39.9274 48.4312 33.0628 39.7656 27.237C22.4148 15.6333 2.26578 8.28415 -18.4833 6.22003C-39.1845 4.17562 -60.4947 7.19719 -79.3531 15.977L-78.304 13.9469C-73.7718 38.1932 -61.8792 60.9825 -44.8024 78.7423C-40.5064 83.1642 -35.9011 87.2741 -31.0324 91.0423C-26.1478 94.7825 -20.976 98.1649 -15.5789 101.136C-4.78265 107.068 6.88711 111.392 18.9436 113.845C24.9709 115.076 31.0919 115.83 37.2268 116.089L39.5246 116.187L41.834 116.173L46.4466 116.124C49.5116 115.896 52.5892 115.815 55.6354 115.366C58.6942 115.064 61.716 114.476 64.746 113.951C66.2519 113.656 67.7435 113.275 69.2473 112.938C69.9952 112.764 70.7491 112.611 71.4929 112.405L73.7161 111.774C75.1877 111.338 76.6953 110.981 78.1506 110.469L82.5326 109.008C83.9879 108.496 85.415 107.917 86.8662 107.373C88.3135 106.849 89.7365 106.237 91.1496 105.624C96.8499 103.241 102.389 100.465 107.823 97.4926C113.272 94.5436 118.598 91.3222 123.853 87.9936C134.38 81.3502 144.584 74.1365 154.943 67.0874C165.293 60.0265 175.779 53.0646 186.76 46.8515C192.234 43.7211 197.883 40.8629 203.626 38.2095C209.369 35.5561 215.321 33.3161 221.335 31.3368C233.396 27.4776 245.869 24.9513 258.468 23.7331C271.072 22.5986 283.796 22.6985 296.355 24.2771C321.445 27.4704 345.911 35.6958 367.636 48.6834C389.356 61.6392 408.327 79.1281 423.093 99.6544L423.85 100.703L423.145 101.766C419.375 107.393 415.349 112.846 411.028 118.065C406.645 123.23 402.042 128.197 397.143 132.879C392.202 137.511 387.066 141.929 381.683 146.019C376.266 150.071 370.685 153.905 364.883 157.385C341.685 171.318 315.505 180.145 288.682 183.216C261.859 186.286 234.399 183.685 208.704 175.446C182.995 167.278 159.162 153.329 139.428 134.987L138.472 134.107L139.599 133.478C152.522 126.217 164.712 117.685 177.05 109.346C189.391 101.05 201.938 92.8566 215.545 86.6504C229.102 80.3827 243.695 76.4292 258.507 74.7954C265.913 73.9994 273.384 73.7231 280.815 74.0703C288.235 74.4256 295.648 75.3386 302.937 76.786Z" fill="url(#paint0_linear_300_91)" fill-opacity="0.12"/>
<path d="M302.937 76.786C295.621 75.4264 288.22 74.6089 280.791 74.3553C273.362 74.1016 265.923 74.4775 258.561 75.3649C243.835 77.1916 229.362 81.2202 215.973 87.5828C202.526 93.872 190.118 102.145 177.87 110.552C165.635 118.993 153.5 127.671 140.529 135.12L140.702 133.601C160.435 151.529 184.014 165.19 209.443 173.097C234.836 181.079 261.944 183.477 288.334 180.291C314.732 177.117 340.431 168.268 363.118 154.463C385.802 140.667 405.485 121.916 420.028 99.7271L420.07 101.836C405.558 81.7531 386.943 64.6651 365.658 52.0222C344.379 39.3494 320.397 31.3431 295.873 28.2709C283.593 26.7469 271.162 26.6836 258.849 27.8129C246.54 29.0259 234.364 31.5171 222.595 35.3093C216.742 37.2581 210.967 39.4396 205.347 42.0447C199.738 44.6517 194.214 47.4516 188.829 50.5478C178.039 56.6843 167.665 63.6059 157.356 70.6647C147.04 77.7116 136.757 84.8997 126.113 91.6133C120.791 94.9701 115.387 98.2177 109.834 101.219C104.288 104.242 98.6251 107.066 92.7696 109.501C91.3128 110.127 89.856 110.752 88.365 111.289C86.88 111.847 85.4092 112.438 83.9121 112.953L79.3888 114.448C77.8898 114.972 76.3403 115.331 74.8151 115.777L72.5163 116.425C71.7526 116.627 70.9668 116.784 70.197 116.964C68.6415 117.301 67.1062 117.694 65.5465 117.999C62.4091 118.545 59.2818 119.143 56.1195 119.445C52.9698 119.895 49.7768 119.984 46.6082 120.212L41.8323 120.25L39.4413 120.258L37.0518 120.153C30.6939 119.871 24.3637 119.077 18.1292 117.794C5.67007 115.231 -6.37067 110.742 -17.4982 104.6C-23.061 101.524 -28.3866 98.0287 -33.421 94.1557C-38.4396 90.2547 -43.1828 86.004 -47.5968 81.4451C-65.1696 63.1017 -77.3556 39.6444 -81.9764 14.6356L-82.2349 13.2084L-80.9274 12.6054C-61.3772 3.56768 -39.3865 0.451607 -18.1131 2.69081C3.19014 4.93586 23.8521 12.6235 41.541 24.6142C50.3765 30.6285 58.4657 37.7076 65.7515 45.5092C73.0115 53.3368 79.359 61.9689 84.9258 71.0486C95.9721 89.2839 103.661 109.398 108.468 130.075C110.902 140.415 112.579 150.927 113.592 161.496C114.141 166.778 114.417 172.08 114.631 177.379C114.752 182.681 114.797 187.999 114.577 193.297C114.127 203.89 113.323 214.444 112.204 224.968C111.712 230.233 111.036 235.482 110.442 240.737C109.756 245.985 109.142 251.236 108.386 256.47C105.495 277.421 102.092 298.293 98.2391 319.087C94.4178 339.876 90.1264 360.584 85.271 381.161C87.5692 370.847 89.7099 360.492 91.7391 350.126C93.7285 339.752 95.67 329.358 97.4701 318.946C101.11 298.132 104.31 277.241 106.996 256.281C107.7 251.047 108.262 245.796 108.896 240.549C109.429 235.292 110.061 230.054 110.502 224.79C111.513 214.286 112.212 203.742 112.554 193.222C112.835 182.699 112.414 172.164 111.339 161.697C110.274 151.232 108.555 140.835 106.087 130.613C101.222 110.183 93.4958 90.3619 82.5226 72.4928C76.9923 63.5963 70.7213 55.155 63.5557 47.5322C56.3762 39.9274 48.4312 33.0628 39.7656 27.237C22.4148 15.6333 2.26578 8.28415 -18.4833 6.22003C-39.1845 4.17562 -60.4947 7.19719 -79.3531 15.977L-78.304 13.9469C-73.7718 38.1932 -61.8792 60.9825 -44.8024 78.7423C-40.5064 83.1642 -35.9011 87.2741 -31.0324 91.0423C-26.1478 94.7825 -20.976 98.1649 -15.5789 101.136C-4.78265 107.068 6.88711 111.392 18.9436 113.845C24.9709 115.076 31.0919 115.83 37.2268 116.089L39.5246 116.187L41.834 116.173L46.4466 116.124C49.5116 115.896 52.5892 115.815 55.6354 115.366C58.6942 115.064 61.716 114.476 64.746 113.951C66.2519 113.656 67.7435 113.275 69.2473 112.938C69.9952 112.764 70.7491 112.611 71.4929 112.405L73.7161 111.774C75.1877 111.338 76.6953 110.981 78.1506 110.469L82.5326 109.008C83.9879 108.496 85.415 107.917 86.8662 107.373C88.3135 106.849 89.7365 106.237 91.1496 105.624C96.8499 103.241 102.389 100.465 107.823 97.4926C113.272 94.5436 118.598 91.3222 123.853 87.9936C134.38 81.3502 144.584 74.1365 154.943 67.0874C165.293 60.0265 175.779 53.0646 186.76 46.8515C192.234 43.7211 197.883 40.8629 203.626 38.2095C209.369 35.5561 215.321 33.3161 221.335 31.3368C233.396 27.4776 245.869 24.9513 258.468 23.7331C271.072 22.5986 283.796 22.6985 296.355 24.2771C321.445 27.4704 345.911 35.6958 367.636 48.6834C389.356 61.6392 408.327 79.1281 423.093 99.6544L423.85 100.703L423.145 101.766C419.375 107.393 415.349 112.846 411.028 118.065C406.645 123.23 402.042 128.197 397.143 132.879C392.202 137.511 387.066 141.929 381.683 146.019C376.266 150.071 370.685 153.905 364.883 157.385C341.685 171.318 315.505 180.145 288.682 183.216C261.859 186.286 234.399 183.685 208.704 175.446C182.995 167.278 159.162 153.329 139.428 134.987L138.472 134.107L139.599 133.478C152.522 126.217 164.712 117.685 177.05 109.346C189.391 101.05 201.938 92.8566 215.545 86.6504C229.102 80.3827 243.695 76.4292 258.507 74.7954C265.913 73.9994 273.384 73.7231 280.815 74.0703C288.235 74.4256 295.648 75.3386 302.937 76.786Z" stroke="url(#paint1_linear_300_91)" stroke-opacity="0.12" stroke-width="2.92571" mask="url(#path-1-outside-1_300_91)"/>
<defs>
<linearGradient id="paint0_linear_300_91" x1="-84.3605" y1="24.0672" x2="425.26" y2="173.835" gradientUnits="userSpaceOnUse">
<stop stop-color="#0B3F01"/>
<stop offset="1" stop-color="#73E75F"/>
</linearGradient>
<linearGradient id="paint1_linear_300_91" x1="-84.3605" y1="24.0672" x2="425.26" y2="173.835" gradientUnits="userSpaceOnUse">
<stop stop-color="#0B3F01"/>
<stop offset="1" stop-color="#73E75F"/>
</linearGradient>
</defs>
</svg>
