<svg width="460" height="715" viewBox="0 0 460 715" fill="none" xmlns="http://www.w3.org/2000/svg">
<mask id="path-1-outside-1_300_72" maskUnits="userSpaceOnUse" x="44.3827" y="83.2113" width="621.33" height="547.065" fill="black">
<rect fill="white" x="44.3827" y="83.2113" width="621.33" height="547.065"/>
<path d="M279.053 175.647C286.023 178.252 292.787 181.365 299.285 184.976C305.782 188.587 311.963 192.743 317.815 197.298C329.493 206.452 339.82 217.363 348.016 229.715C356.299 242.035 362.669 255.519 368.833 269.036C374.967 282.575 380.895 296.266 388.172 309.333L388.806 307.943C362.656 313.137 335.41 312.694 309.543 306.365C283.667 300.119 259.201 288.205 238.227 271.874C217.24 255.55 199.777 234.723 187.449 211.201C175.118 187.688 167.913 161.475 166.885 134.965L165.762 136.751C188.548 127.019 213.307 121.967 238.064 122.102C262.83 122.207 287.508 127.705 310.108 137.71C321.417 142.732 332.103 149.084 342.073 156.398C351.997 163.78 361.148 172.19 369.279 181.505C373.291 186.192 377.116 191.037 380.589 196.166C384.053 201.291 387.344 206.537 390.363 211.965C396.448 222.785 401.772 234.063 406.968 245.425C412.178 256.78 417.285 268.239 422.947 279.478C425.778 285.097 428.736 290.665 431.948 296.099C435.143 301.548 438.54 306.887 442.304 311.991C443.23 313.278 444.156 314.565 445.157 315.792C446.142 317.036 447.098 318.301 448.116 319.513L451.222 323.125C452.236 324.347 453.379 325.453 454.456 326.622L456.093 328.361C456.643 328.928 457.236 329.468 457.802 330.019C458.961 331.11 460.075 332.237 461.254 333.303C463.662 335.387 466.033 337.512 468.588 339.4C471.055 341.408 473.746 343.13 476.343 344.959L480.417 347.453L482.462 348.692L484.564 349.833C490.158 352.868 495.992 355.449 501.996 357.563C513.994 361.787 526.626 364.145 539.327 364.616C545.68 364.847 552.045 364.596 558.355 363.871C564.667 363.114 570.922 361.916 577.054 360.284C601.567 353.62 624.099 339.797 640.947 320.746L641.904 319.656L641.094 318.466C628.997 300.645 611.757 286.642 592.372 277.598C572.959 268.544 551.29 264.484 529.952 265.644C519.28 266.245 508.7 268.143 498.436 271.074C488.18 274.041 478.292 278.167 468.842 283.08C449.978 293.014 433.023 306.289 418.248 321.533C410.833 329.139 403.979 337.284 397.664 345.819C394.472 350.063 391.503 354.464 388.589 358.895C385.753 363.377 382.974 367.911 380.432 372.564C375.358 381.874 370.608 391.333 366.144 400.929C363.853 405.694 361.727 410.541 359.528 415.351C357.411 420.202 355.231 425.019 353.182 429.893C344.862 449.338 337.022 468.978 329.609 488.784C322.17 508.569 315.176 528.527 308.733 548.664C312.078 538.641 315.58 528.663 319.183 518.734C322.825 508.818 326.517 498.91 330.34 489.06C337.947 469.346 345.971 449.794 354.471 430.448C356.565 425.6 358.789 420.81 360.95 415.986C363.202 411.207 365.36 406.392 367.695 401.654C372.241 392.131 377.076 382.735 382.204 373.542C387.387 364.38 393.176 355.568 399.491 347.152C405.797 338.732 412.628 330.709 420.011 323.221C434.709 308.219 451.545 295.215 470.157 285.556C479.481 280.782 489.206 276.779 499.275 273.939C509.347 271.122 519.693 269.334 530.121 268.807C550.971 267.804 572.025 271.89 590.871 280.813C609.665 289.73 626.37 303.301 638.007 320.544L638.154 318.263C621.775 336.706 599.839 350.108 576.052 356.527C570.092 358.103 564.027 359.252 557.913 359.972C551.799 360.66 545.624 360.893 539.468 360.658C527.158 360.179 514.93 357.87 503.333 353.759C497.533 351.708 491.899 349.199 486.508 346.26L484.489 345.159L482.517 343.958L478.589 341.538C476.08 339.763 473.484 338.108 471.105 336.154C468.639 334.319 466.353 332.257 464.026 330.246C462.888 329.217 461.806 328.122 460.691 327.058C460.14 326.524 459.572 326.004 459.041 325.444L457.461 323.758C456.425 322.626 455.317 321.543 454.333 320.354L451.331 316.844C450.347 315.655 449.423 314.423 448.46 313.209C447.489 312.014 446.585 310.757 445.69 309.503C442.033 304.524 438.716 299.29 435.592 293.942C432.442 288.607 429.537 283.101 426.749 277.541C421.151 266.422 416.124 254.981 410.88 243.602C405.648 232.217 400.25 220.847 394.041 209.864C390.963 204.36 387.595 199 384.041 193.766C380.487 188.533 376.54 183.546 372.406 178.75C364.059 169.227 354.672 160.634 344.502 153.097C334.285 145.63 323.33 139.158 311.753 134.039C288.606 123.846 263.4 118.286 238.089 118.221C212.799 118.131 187.528 123.342 164.296 133.323L163.107 133.832L163.163 135.106C163.494 141.871 164.134 148.618 165.148 155.318C166.242 162.004 167.627 168.633 169.413 175.169C171.26 181.685 173.385 188.118 175.891 194.397C178.444 200.662 181.252 206.823 184.43 212.796C197.13 236.691 215.017 257.747 236.422 274.201C257.826 290.656 282.7 302.578 308.966 308.759C335.207 315.008 362.82 315.336 389.185 309.787L390.457 309.525L389.815 308.406C382.482 295.523 376.433 281.929 370.156 268.425C363.856 254.956 357.325 241.468 348.863 229.137C340.475 216.779 330.006 205.871 318.155 196.837C312.217 192.338 305.958 188.252 299.41 184.719C292.869 181.2 286.045 178.162 279.053 175.647Z"/>
</mask>
<path d="M279.053 175.647C286.023 178.252 292.787 181.365 299.285 184.976C305.782 188.587 311.963 192.743 317.815 197.298C329.493 206.452 339.82 217.363 348.016 229.715C356.299 242.035 362.669 255.519 368.833 269.036C374.967 282.575 380.895 296.266 388.172 309.333L388.806 307.943C362.656 313.137 335.41 312.694 309.543 306.365C283.667 300.119 259.201 288.205 238.227 271.874C217.24 255.55 199.777 234.723 187.449 211.201C175.118 187.688 167.913 161.475 166.885 134.965L165.762 136.751C188.548 127.019 213.307 121.967 238.064 122.102C262.83 122.207 287.508 127.705 310.108 137.71C321.417 142.732 332.103 149.084 342.073 156.398C351.997 163.78 361.148 172.19 369.279 181.505C373.291 186.192 377.116 191.037 380.589 196.166C384.053 201.291 387.344 206.537 390.363 211.965C396.448 222.785 401.772 234.063 406.968 245.425C412.178 256.78 417.285 268.239 422.947 279.478C425.778 285.097 428.736 290.665 431.948 296.099C435.143 301.548 438.54 306.887 442.304 311.991C443.23 313.278 444.156 314.565 445.157 315.792C446.142 317.036 447.098 318.301 448.116 319.513L451.222 323.125C452.236 324.347 453.379 325.453 454.456 326.622L456.093 328.361C456.643 328.928 457.236 329.468 457.802 330.019C458.961 331.11 460.075 332.237 461.254 333.303C463.662 335.387 466.033 337.512 468.588 339.4C471.055 341.408 473.746 343.13 476.343 344.959L480.417 347.453L482.462 348.692L484.564 349.833C490.158 352.868 495.992 355.449 501.996 357.563C513.994 361.787 526.626 364.145 539.327 364.616C545.68 364.847 552.045 364.596 558.355 363.871C564.667 363.114 570.922 361.916 577.054 360.284C601.567 353.62 624.099 339.797 640.947 320.746L641.904 319.656L641.094 318.466C628.997 300.645 611.757 286.642 592.372 277.598C572.959 268.544 551.29 264.484 529.952 265.644C519.28 266.245 508.7 268.143 498.436 271.074C488.18 274.041 478.292 278.167 468.842 283.08C449.978 293.014 433.023 306.289 418.248 321.533C410.833 329.139 403.979 337.284 397.664 345.819C394.472 350.063 391.503 354.464 388.589 358.895C385.753 363.377 382.974 367.911 380.432 372.564C375.358 381.874 370.608 391.333 366.144 400.929C363.853 405.694 361.727 410.541 359.528 415.351C357.411 420.202 355.231 425.019 353.182 429.893C344.862 449.338 337.022 468.978 329.609 488.784C322.17 508.569 315.176 528.527 308.733 548.664C312.078 538.641 315.58 528.663 319.183 518.734C322.825 508.818 326.517 498.91 330.34 489.06C337.947 469.346 345.971 449.794 354.471 430.448C356.565 425.6 358.789 420.81 360.95 415.986C363.202 411.207 365.36 406.392 367.695 401.654C372.241 392.131 377.076 382.735 382.204 373.542C387.387 364.38 393.176 355.568 399.491 347.152C405.797 338.732 412.628 330.709 420.011 323.221C434.709 308.219 451.545 295.215 470.157 285.556C479.481 280.782 489.206 276.779 499.275 273.939C509.347 271.122 519.693 269.334 530.121 268.807C550.971 267.804 572.025 271.89 590.871 280.813C609.665 289.73 626.37 303.301 638.007 320.544L638.154 318.263C621.775 336.706 599.839 350.108 576.052 356.527C570.092 358.103 564.027 359.252 557.913 359.972C551.799 360.66 545.624 360.893 539.468 360.658C527.158 360.179 514.93 357.87 503.333 353.759C497.533 351.708 491.899 349.199 486.508 346.26L484.489 345.159L482.517 343.958L478.589 341.538C476.08 339.763 473.484 338.108 471.105 336.154C468.639 334.319 466.353 332.257 464.026 330.246C462.888 329.217 461.806 328.122 460.691 327.058C460.14 326.524 459.572 326.004 459.041 325.444L457.461 323.758C456.425 322.626 455.317 321.543 454.333 320.354L451.331 316.844C450.347 315.655 449.423 314.423 448.46 313.209C447.489 312.014 446.585 310.757 445.69 309.503C442.033 304.524 438.716 299.29 435.592 293.942C432.442 288.607 429.537 283.101 426.749 277.541C421.151 266.422 416.124 254.981 410.88 243.602C405.648 232.217 400.25 220.847 394.041 209.864C390.963 204.36 387.595 199 384.041 193.766C380.487 188.533 376.54 183.546 372.406 178.75C364.059 169.227 354.672 160.634 344.502 153.097C334.285 145.63 323.33 139.158 311.753 134.039C288.606 123.846 263.4 118.286 238.089 118.221C212.799 118.131 187.528 123.342 164.296 133.323L163.107 133.832L163.163 135.106C163.494 141.871 164.134 148.618 165.148 155.318C166.242 162.004 167.627 168.633 169.413 175.169C171.26 181.685 173.385 188.118 175.891 194.397C178.444 200.662 181.252 206.823 184.43 212.796C197.13 236.691 215.017 257.747 236.422 274.201C257.826 290.656 282.7 302.578 308.966 308.759C335.207 315.008 362.82 315.336 389.185 309.787L390.457 309.525L389.815 308.406C382.482 295.523 376.433 281.929 370.156 268.425C363.856 254.956 357.325 241.468 348.863 229.137C340.475 216.779 330.006 205.871 318.155 196.837C312.217 192.338 305.958 188.252 299.41 184.719C292.869 181.2 286.045 178.162 279.053 175.647Z" fill="url(#paint0_linear_300_72)" fill-opacity="0.12"/>
<path d="M279.053 175.647C286.023 178.252 292.787 181.365 299.285 184.976C305.782 188.587 311.963 192.743 317.815 197.298C329.493 206.452 339.82 217.363 348.016 229.715C356.299 242.035 362.669 255.519 368.833 269.036C374.967 282.575 380.895 296.266 388.172 309.333L388.806 307.943C362.656 313.137 335.41 312.694 309.543 306.365C283.667 300.119 259.201 288.205 238.227 271.874C217.24 255.55 199.777 234.723 187.449 211.201C175.118 187.688 167.913 161.475 166.885 134.965L165.762 136.751C188.548 127.019 213.307 121.967 238.064 122.102C262.83 122.207 287.508 127.705 310.108 137.71C321.417 142.732 332.103 149.084 342.073 156.398C351.997 163.78 361.148 172.19 369.279 181.505C373.291 186.192 377.116 191.037 380.589 196.166C384.053 201.291 387.344 206.537 390.363 211.965C396.448 222.785 401.772 234.063 406.968 245.425C412.178 256.78 417.285 268.239 422.947 279.478C425.778 285.097 428.736 290.665 431.948 296.099C435.143 301.548 438.54 306.887 442.304 311.991C443.23 313.278 444.156 314.565 445.157 315.792C446.142 317.036 447.098 318.301 448.116 319.513L451.222 323.125C452.236 324.347 453.379 325.453 454.456 326.622L456.093 328.361C456.643 328.928 457.236 329.468 457.802 330.019C458.961 331.11 460.075 332.237 461.254 333.303C463.662 335.387 466.033 337.512 468.588 339.4C471.055 341.408 473.746 343.13 476.343 344.959L480.417 347.453L482.462 348.692L484.564 349.833C490.158 352.868 495.992 355.449 501.996 357.563C513.994 361.787 526.626 364.145 539.327 364.616C545.68 364.847 552.045 364.596 558.355 363.871C564.667 363.114 570.922 361.916 577.054 360.284C601.567 353.62 624.099 339.797 640.947 320.746L641.904 319.656L641.094 318.466C628.997 300.645 611.757 286.642 592.372 277.598C572.959 268.544 551.29 264.484 529.952 265.644C519.28 266.245 508.7 268.143 498.436 271.074C488.18 274.041 478.292 278.167 468.842 283.08C449.978 293.014 433.023 306.289 418.248 321.533C410.833 329.139 403.979 337.284 397.664 345.819C394.472 350.063 391.503 354.464 388.589 358.895C385.753 363.377 382.974 367.911 380.432 372.564C375.358 381.874 370.608 391.333 366.144 400.929C363.853 405.694 361.727 410.541 359.528 415.351C357.411 420.202 355.231 425.019 353.182 429.893C344.862 449.338 337.022 468.978 329.609 488.784C322.17 508.569 315.176 528.527 308.733 548.664C312.078 538.641 315.58 528.663 319.183 518.734C322.825 508.818 326.517 498.91 330.34 489.06C337.947 469.346 345.971 449.794 354.471 430.448C356.565 425.6 358.789 420.81 360.95 415.986C363.202 411.207 365.36 406.392 367.695 401.654C372.241 392.131 377.076 382.735 382.204 373.542C387.387 364.38 393.176 355.568 399.491 347.152C405.797 338.732 412.628 330.709 420.011 323.221C434.709 308.219 451.545 295.215 470.157 285.556C479.481 280.782 489.206 276.779 499.275 273.939C509.347 271.122 519.693 269.334 530.121 268.807C550.971 267.804 572.025 271.89 590.871 280.813C609.665 289.73 626.37 303.301 638.007 320.544L638.154 318.263C621.775 336.706 599.839 350.108 576.052 356.527C570.092 358.103 564.027 359.252 557.913 359.972C551.799 360.66 545.624 360.893 539.468 360.658C527.158 360.179 514.93 357.87 503.333 353.759C497.533 351.708 491.899 349.199 486.508 346.26L484.489 345.159L482.517 343.958L478.589 341.538C476.08 339.763 473.484 338.108 471.105 336.154C468.639 334.319 466.353 332.257 464.026 330.246C462.888 329.217 461.806 328.122 460.691 327.058C460.14 326.524 459.572 326.004 459.041 325.444L457.461 323.758C456.425 322.626 455.317 321.543 454.333 320.354L451.331 316.844C450.347 315.655 449.423 314.423 448.46 313.209C447.489 312.014 446.585 310.757 445.69 309.503C442.033 304.524 438.716 299.29 435.592 293.942C432.442 288.607 429.537 283.101 426.749 277.541C421.151 266.422 416.124 254.981 410.88 243.602C405.648 232.217 400.25 220.847 394.041 209.864C390.963 204.36 387.595 199 384.041 193.766C380.487 188.533 376.54 183.546 372.406 178.75C364.059 169.227 354.672 160.634 344.502 153.097C334.285 145.63 323.33 139.158 311.753 134.039C288.606 123.846 263.4 118.286 238.089 118.221C212.799 118.131 187.528 123.342 164.296 133.323L163.107 133.832L163.163 135.106C163.494 141.871 164.134 148.618 165.148 155.318C166.242 162.004 167.627 168.633 169.413 175.169C171.26 181.685 173.385 188.118 175.891 194.397C178.444 200.662 181.252 206.823 184.43 212.796C197.13 236.691 215.017 257.747 236.422 274.201C257.826 290.656 282.7 302.578 308.966 308.759C335.207 315.008 362.82 315.336 389.185 309.787L390.457 309.525L389.815 308.406C382.482 295.523 376.433 281.929 370.156 268.425C363.856 254.956 357.325 241.468 348.863 229.137C340.475 216.779 330.006 205.871 318.155 196.837C312.217 192.338 305.958 188.252 299.41 184.719C292.869 181.2 286.045 178.162 279.053 175.647Z" stroke="url(#paint1_linear_300_72)" stroke-opacity="0.12" stroke-width="2.92571" mask="url(#path-1-outside-1_300_72)"/>
<defs>
<linearGradient id="paint0_linear_300_72" x1="638.129" y1="330.057" x2="124.21" y2="195.779" gradientUnits="userSpaceOnUse">
<stop stop-color="#0B3F01"/>
<stop offset="1" stop-color="#73E75F"/>
</linearGradient>
<linearGradient id="paint1_linear_300_72" x1="638.129" y1="330.057" x2="124.21" y2="195.779" gradientUnits="userSpaceOnUse">
<stop stop-color="#0B3F01"/>
<stop offset="1" stop-color="#73E75F"/>
</linearGradient>
</defs>
</svg>
