<svg width="56" height="56" viewBox="0 0 56 56" fill="none" xmlns="http://www.w3.org/2000/svg">
<path d="M38.9149 52.5012H42.0001C42.2322 52.5012 42.4547 52.409 42.6188 52.2449C42.7829 52.0808 42.8751 51.8582 42.8751 51.6262V31.5012C42.8751 31.2691 42.7829 31.0466 42.6188 30.8825C42.4547 30.7184 42.2322 30.6262 42.0001 30.6262H40.5336C39.9901 29.5752 39.359 28.5718 38.6471 27.6267C42.4872 23.5675 45.3327 18.6723 46.9596 13.3266L50.7501 14.4107C51.0495 14.495 51.3659 14.498 51.6668 14.4193C51.9677 14.3407 52.2422 14.1833 52.4621 13.9634C52.682 13.7434 52.8393 13.4688 52.9178 13.1679C52.9963 12.8669 52.9932 12.5505 52.9087 12.2512L50.17 2.6638C50.0943 2.39893 49.9572 2.15566 49.7697 1.95379C49.5823 1.75192 49.3499 1.59715 49.0913 1.50207C48.8328 1.40699 48.5554 1.37429 48.2819 1.40663C48.0083 1.43897 47.7462 1.53544 47.517 1.68818L39.2692 7.18668C39.0142 7.35671 38.8083 7.59075 38.6721 7.86538C38.5359 8.14001 38.4743 8.44559 38.4933 8.75153C38.5124 9.05748 38.6115 9.35305 38.7806 9.60866C38.9498 9.86428 39.1832 10.071 39.4574 10.2081L42.7456 11.8522C41.6081 16.2368 37.6496 20.7037 33.2527 22.6147C31.6627 21.5823 29.9394 20.7713 28.1305 20.2041C28.4107 19.9181 28.6213 19.5715 28.7458 19.191C28.8703 18.8105 28.9054 18.4064 28.8485 18.0101C28.7915 17.6139 28.644 17.2361 28.4173 16.9061C28.1907 16.576 27.891 16.3027 27.5416 16.1073L29.4474 12.6791C29.464 12.6493 29.4789 12.6186 29.492 12.5872C29.7145 12.0086 29.7972 11.3858 29.7335 10.7692C29.6698 10.1527 29.4614 9.55987 29.1254 9.03905C28.9151 8.69406 28.622 8.40701 28.2727 8.20394C27.9234 8.00088 27.529 7.88822 27.1251 7.87618H16.6251C16.2215 7.88794 15.8272 8.0002 15.4779 8.2028C15.1287 8.40539 14.8355 8.69192 14.6249 9.03643C14.2888 9.55724 14.0804 10.15 14.0167 10.7666C13.953 11.3831 14.0358 12.006 14.2582 12.5845C14.2713 12.616 14.2862 12.6467 14.3029 12.6764L16.2086 16.1012C15.8591 16.2966 15.5594 16.5701 15.3327 16.9002C15.1061 17.2303 14.9585 17.6082 14.9017 18.0046C14.8448 18.401 14.8801 18.8052 15.0047 19.1857C15.1294 19.5663 15.3402 19.9129 15.6206 20.1988C12.357 21.2167 9.39122 23.0159 6.98087 25.4402C4.57052 27.8646 2.78849 30.8407 1.78955 34.1102C0.790618 37.3797 0.604982 40.8436 1.24877 44.201C1.89256 47.5585 3.3463 50.7081 5.48374 53.3762H1.75011V55.1262H54.2501V53.3762H38.2604C38.4887 53.0918 38.7022 52.7969 38.9149 52.5012ZM41.1251 50.7512H39.3751V32.3762H41.1251V50.7512ZM44.6085 11.5433C44.6451 11.3556 44.6193 11.1611 44.5349 10.9895C44.4505 10.8179 44.3123 10.6786 44.1412 10.5931L40.2396 8.64268L48.4865 3.14418L51.2252 12.7272L46.6149 11.4094C46.3937 11.3464 46.1567 11.3729 45.9549 11.4832C45.7532 11.5936 45.603 11.7789 45.5369 11.9992C43.1149 20.0492 38.6646 26.4288 33.0077 29.9655L29.163 32.3674C29.1373 32.3848 29.1072 32.3945 29.0762 32.3954C29.0453 32.3964 29.0147 32.3885 28.988 32.3727C28.9526 32.3538 28.9232 32.3253 28.9032 32.2905C28.8833 32.2557 28.8735 32.2159 28.8751 32.1758V26.1637C28.874 26.1188 28.8867 26.0746 28.9114 26.037C28.9361 25.9995 28.9717 25.9704 29.0134 25.9537L32.8389 24.6499C38.4634 22.7337 43.5226 17.0987 44.6085 11.5433ZM35.0001 38.5012V50.7512H33.2501V38.5012H35.0001ZM31.5001 37.6262C31.4982 39.0047 31.1998 40.3667 30.6251 41.6197V41.1262C30.6251 40.8941 30.5329 40.6715 30.3688 40.5075C30.2047 40.3434 29.9822 40.2512 29.7501 40.2512H26.2501C26.018 40.2512 25.7955 40.3434 25.6314 40.5075C25.4673 40.6715 25.3751 40.8941 25.3751 41.1262V46.5809C23.8381 47.1843 22.1717 47.3821 20.5362 47.1554C18.9007 46.9286 17.351 46.285 16.0361 45.2862C14.7212 44.2875 13.6854 42.9672 13.0282 41.4525C12.371 39.9377 12.1145 38.2794 12.2834 36.6368C12.4524 34.9943 13.041 33.4229 13.9928 32.0736C14.9445 30.7243 16.2274 29.6426 17.7181 28.9324C19.2087 28.2222 20.857 27.9074 22.5044 28.0183C24.1519 28.1292 25.7431 28.6621 27.1251 29.5657V32.1758C27.1241 32.5277 27.2172 32.8735 27.395 33.1772C27.5727 33.4809 27.8285 33.7316 28.1357 33.903C28.4359 34.072 28.7763 34.1564 29.1207 34.1473C29.465 34.1382 29.8005 34.036 30.0914 33.8514L30.5761 33.5478C31.1794 34.8231 31.4949 36.2154 31.5001 37.6262ZM28.8751 42.0012V50.7512H27.1251V42.0012H28.8751ZM16.0791 10.0103C16.1346 9.90871 16.2127 9.82123 16.3074 9.75462C16.402 9.68802 16.5107 9.64407 16.6251 9.62618H27.1251C27.2395 9.64407 27.3482 9.68802 27.4429 9.75462C27.5375 9.82123 27.6156 9.90871 27.6711 10.0103C27.844 10.2854 27.9534 10.5956 27.9914 10.9183C28.0293 11.241 27.995 11.5681 27.8907 11.8758L25.7356 15.7512H18.0146L15.8595 11.8758C15.7553 11.5681 15.7209 11.241 15.7589 10.9183C15.7969 10.5956 15.9063 10.2854 16.0791 10.0103ZM17.5001 19.2512C17.268 19.2512 17.0455 19.159 16.8814 18.9949C16.7173 18.8308 16.6251 18.6082 16.6251 18.3762C16.6251 18.1441 16.7173 17.9216 16.8814 17.7575C17.0455 17.5934 17.268 17.5012 17.5001 17.5012H26.2501C26.4822 17.5012 26.7047 17.5934 26.8688 17.7575C27.0329 17.9216 27.1251 18.1441 27.1251 18.3762C27.1251 18.6082 27.0329 18.8308 26.8688 18.9949C26.7047 19.159 26.4822 19.2512 26.2501 19.2512H17.5001ZM2.62511 40.2512C2.62327 36.9068 3.49323 33.6198 5.14917 30.7142C6.80511 27.8086 9.18984 25.3849 12.0682 23.682C14.9465 21.9791 18.219 21.0559 21.5629 21.0035C24.9068 20.951 28.2067 21.7711 31.137 23.3829L28.4499 24.2991C28.0619 24.4325 27.7255 24.6841 27.4879 25.0185C27.2503 25.353 27.1235 25.7534 27.1251 26.1637V27.5374C25.4626 26.6721 23.6121 26.2309 21.738 26.2532C19.8639 26.2755 18.0243 26.7605 16.3829 27.6651C14.7414 28.5697 13.3489 29.8659 12.3292 31.4385C11.3094 33.011 10.6941 34.8111 10.5378 36.6788C10.3815 38.5465 10.6891 40.4239 11.4333 42.1441C12.1775 43.8642 13.3352 45.3738 14.8035 46.5387C16.2718 47.7035 18.0051 48.4875 19.8495 48.8209C21.6938 49.1544 23.5919 49.0269 25.3751 48.4499V51.6262C25.3751 51.8582 25.4673 52.0808 25.6314 52.2449C25.7955 52.409 26.018 52.5012 26.2501 52.5012H29.7501C29.9822 52.5012 30.2047 52.409 30.3688 52.2449C30.5329 52.0808 30.6251 51.8582 30.6251 51.6262V44.8791C30.9428 44.4973 31.2351 44.0951 31.5001 43.675V51.6262C31.5001 51.8582 31.5923 52.0808 31.7564 52.2449C31.9205 52.409 32.143 52.5012 32.3751 52.5012H35.8751C36.1072 52.5012 36.3297 52.409 36.4938 52.2449C36.6579 52.0808 36.7501 51.8582 36.7501 51.6262V37.6262C36.7501 37.3941 36.6579 37.1715 36.4938 37.0075C36.3297 36.8434 36.1072 36.7512 35.8751 36.7512H33.2134C33.1028 35.3105 32.7189 33.9041 32.082 32.6072L33.9352 31.4487C35.1551 30.6805 36.3064 29.8087 37.3766 28.8429C37.7975 29.4155 38.1866 30.0108 38.5421 30.6262H38.5001C38.268 30.6262 38.0455 30.7184 37.8814 30.8825C37.7173 31.0466 37.6251 31.2691 37.6251 31.5012V51.305C37.112 52.0334 36.5492 52.7254 35.9407 53.3762H7.81211C4.47408 49.8218 2.61879 45.1272 2.62511 40.2512Z" fill="white"/>
<mask id="path-2-outside-1_300_110" maskUnits="userSpaceOnUse" x="13" y="33" width="17" height="13" fill="black">
<rect fill="white" x="13" y="33" width="17" height="13"/>
<path d="M25.3993 35.4252C25.1819 35.4272 24.9652 35.4447 24.7508 35.4778C24.5364 35.5109 24.3252 35.5615 24.1191 35.6257C23.7072 35.7557 23.3149 35.945 22.9667 36.1929C22.6165 36.4391 22.3072 36.7344 22.0032 37.0325C21.6999 37.3316 21.3971 37.6197 21.067 37.8953C21.7334 38.2834 22.486 38.5071 23.2594 38.5879C24.0322 38.671 24.8228 38.5907 25.5615 38.3603C26.3005 38.1301 26.9876 37.7471 27.5606 37.2436C28.1335 36.7404 28.6056 36.1746 28.898 35.4838C28.3692 35.008 27.7397 34.637 27.0585 34.4031C26.3773 34.1683 25.6449 34.0769 24.9245 34.1246C24.5639 34.1489 24.2072 34.2143 23.8605 34.312C23.5145 34.4119 23.1794 34.5465 22.8632 34.7147C22.7064 34.8001 22.553 34.8915 22.4065 34.9937C22.2603 35.0959 22.1177 35.203 21.9807 35.3176C21.7058 35.5452 21.4472 35.7922 21.1913 36.0427C20.9351 36.2929 20.6806 36.5468 20.4132 36.7895C20.2794 36.9109 20.1427 37.0297 20.0004 37.1425C19.8583 37.2559 19.7118 37.3644 19.5576 37.4632C19.5194 37.4883 19.4811 37.5135 19.4414 37.5363C19.4019 37.5597 19.3631 37.584 19.323 37.6063L19.2018 37.672C19.1617 37.6945 19.1193 37.7128 19.0781 37.7334L19.0158 37.7637C18.9951 37.7734 18.9734 37.7819 18.9524 37.7911C18.9097 37.8088 18.8678 37.8279 18.8248 37.8448C18.738 37.8768 18.6517 37.9102 18.5627 37.9356C18.4749 37.965 18.3839 37.9847 18.2943 38.0081L18.1576 38.035L18.0891 38.0481L18.02 38.0581C17.8361 38.0847 17.6502 38.0969 17.4643 38.0952C17.0927 38.0918 16.7223 38.033 16.3688 37.9236C16.1921 37.8688 16.0198 37.8011 15.8537 37.7214C15.688 37.6409 15.5281 37.5492 15.376 37.4472C14.7692 37.036 14.2882 36.4545 14.0154 35.7894L14 35.7514L14.0341 35.7277C14.5439 35.3727 15.1568 35.1679 15.7793 35.1148C16.4026 35.0617 17.0381 35.1622 17.6126 35.3975C17.8996 35.5158 18.1712 35.6674 18.4239 35.8433C18.676 36.0201 18.9064 36.224 19.1169 36.4445C19.536 36.888 19.8693 37.4015 20.1231 37.9462C20.2509 38.2183 20.358 38.4993 20.4464 38.7855C20.4917 38.9283 20.5294 39.0731 20.5653 39.2182C20.5985 39.3638 20.6296 39.5103 20.6531 39.6577C20.6996 39.9524 20.7358 40.248 20.7628 40.5445C20.7782 40.6924 20.7883 40.8409 20.8007 40.9891C20.8105 41.1376 20.8224 41.2859 20.8301 41.4344C20.8648 42.0281 20.8844 42.6224 20.8906 43.217C20.8977 43.8114 20.8909 44.406 20.8672 45C20.8752 44.703 20.8784 44.4057 20.8784 44.1087C20.8772 43.8116 20.8746 43.5143 20.8678 43.2173C20.8553 42.6233 20.8298 42.0296 20.7892 41.4367C20.78 41.2884 20.7666 41.1405 20.7554 40.9923C20.7411 40.8443 20.7299 40.6964 20.713 40.5488C20.683 40.2535 20.6439 39.9587 20.5946 39.6666C20.5436 39.3747 20.4725 39.0862 20.3829 38.8032C20.2936 38.5202 20.186 38.2426 20.0579 37.9739C19.8037 37.4364 19.471 36.9312 19.0561 36.4973C18.8477 36.2817 18.6205 36.0827 18.3723 35.911C18.1238 35.74 17.8575 35.5934 17.5764 35.4795C17.0138 35.253 16.3949 35.1591 15.7885 35.2142C15.1835 35.2696 14.6082 35.4282 14.1168 35.7724C14.3828 36.417 14.8517 36.9597 15.4409 37.3575C15.5889 37.4564 15.744 37.5449 15.9047 37.6226C16.0658 37.6994 16.233 37.7648 16.4044 37.8176C16.7472 37.923 17.106 37.9793 17.4655 37.9819C17.6452 37.9833 17.8249 37.971 18.0022 37.945L18.0686 37.9353L18.1348 37.9225L18.2667 37.8962C18.3533 37.8733 18.4411 37.8545 18.5259 37.8256C18.6119 37.8008 18.6952 37.7682 18.7792 37.7374C18.8207 37.7211 18.8613 37.7025 18.9025 37.6851C18.923 37.6763 18.9438 37.668 18.9639 37.6583L19.0241 37.6289C19.0639 37.6089 19.1051 37.5909 19.1439 37.5689L19.2614 37.5049C19.3002 37.4829 19.3379 37.4592 19.3764 37.4364C19.415 37.4141 19.4523 37.3895 19.4894 37.365C19.6395 37.2684 19.7827 37.1619 19.9218 37.0505C20.0614 36.9397 20.1961 36.8221 20.328 36.7018C20.5926 36.4616 20.8446 36.2075 21.102 35.957C21.3591 35.7063 21.6207 35.4575 21.9006 35.2267C22.04 35.1108 22.1859 35.0014 22.3357 34.8972C22.4854 34.7929 22.6435 34.699 22.8048 34.6119C23.1289 34.4402 23.4723 34.3031 23.8267 34.2015C24.1817 34.1021 24.547 34.0361 24.9159 34.0118C25.6532 33.9644 26.4008 34.0592 27.0965 34.3003C27.7919 34.5405 28.4339 34.9206 28.9724 35.4072L29 35.4321L28.9858 35.4652C28.9093 35.6409 28.8244 35.8131 28.7298 35.9804C28.6332 36.1466 28.5291 36.3086 28.4149 36.4642C28.2993 36.6187 28.1768 36.7684 28.0454 36.9103C27.9129 37.0514 27.7744 37.1873 27.6276 37.3147C27.0407 37.8245 26.3397 38.2095 25.5879 38.4391C24.8362 38.6687 24.0343 38.7452 23.2514 38.6567C22.4685 38.5702 21.707 38.314 21.0383 37.9145L21.006 37.8953L21.0347 37.8719C21.3645 37.6017 21.6661 37.3004 21.973 37.0037C22.2802 36.7081 22.594 36.4142 22.9492 36.1695C23.3027 35.9233 23.6989 35.7354 24.1144 35.6103C24.3222 35.5483 24.5349 35.5003 24.7499 35.4698C24.9646 35.4395 25.1822 35.4247 25.3993 35.4252Z"/>
</mask>
<path d="M25.3993 35.4252C25.1819 35.4272 24.9652 35.4447 24.7508 35.4778C24.5364 35.5109 24.3252 35.5615 24.1191 35.6257C23.7072 35.7557 23.3149 35.945 22.9667 36.1929C22.6165 36.4391 22.3072 36.7344 22.0032 37.0325C21.6999 37.3316 21.3971 37.6197 21.067 37.8953C21.7334 38.2834 22.486 38.5071 23.2594 38.5879C24.0322 38.671 24.8228 38.5907 25.5615 38.3603C26.3005 38.1301 26.9876 37.7471 27.5606 37.2436C28.1335 36.7404 28.6056 36.1746 28.898 35.4838C28.3692 35.008 27.7397 34.637 27.0585 34.4031C26.3773 34.1683 25.6449 34.0769 24.9245 34.1246C24.5639 34.1489 24.2072 34.2143 23.8605 34.312C23.5145 34.4119 23.1794 34.5465 22.8632 34.7147C22.7064 34.8001 22.553 34.8915 22.4065 34.9937C22.2603 35.0959 22.1177 35.203 21.9807 35.3176C21.7058 35.5452 21.4472 35.7922 21.1913 36.0427C20.9351 36.2929 20.6806 36.5468 20.4132 36.7895C20.2794 36.9109 20.1427 37.0297 20.0004 37.1425C19.8583 37.2559 19.7118 37.3644 19.5576 37.4632C19.5194 37.4883 19.4811 37.5135 19.4414 37.5363C19.4019 37.5597 19.3631 37.584 19.323 37.6063L19.2018 37.672C19.1617 37.6945 19.1193 37.7128 19.0781 37.7334L19.0158 37.7637C18.9951 37.7734 18.9734 37.7819 18.9524 37.7911C18.9097 37.8088 18.8678 37.8279 18.8248 37.8448C18.738 37.8768 18.6517 37.9102 18.5627 37.9356C18.4749 37.965 18.3839 37.9847 18.2943 38.0081L18.1576 38.035L18.0891 38.0481L18.02 38.0581C17.8361 38.0847 17.6502 38.0969 17.4643 38.0952C17.0927 38.0918 16.7223 38.033 16.3688 37.9236C16.1921 37.8688 16.0198 37.8011 15.8537 37.7214C15.688 37.6409 15.5281 37.5492 15.376 37.4472C14.7692 37.036 14.2882 36.4545 14.0154 35.7894L14 35.7514L14.0341 35.7277C14.5439 35.3727 15.1568 35.1679 15.7793 35.1148C16.4026 35.0617 17.0381 35.1622 17.6126 35.3975C17.8996 35.5158 18.1712 35.6674 18.4239 35.8433C18.676 36.0201 18.9064 36.224 19.1169 36.4445C19.536 36.888 19.8693 37.4015 20.1231 37.9462C20.2509 38.2183 20.358 38.4993 20.4464 38.7855C20.4917 38.9283 20.5294 39.0731 20.5653 39.2182C20.5985 39.3638 20.6296 39.5103 20.6531 39.6577C20.6996 39.9524 20.7358 40.248 20.7628 40.5445C20.7782 40.6924 20.7883 40.8409 20.8007 40.9891C20.8105 41.1376 20.8224 41.2859 20.8301 41.4344C20.8648 42.0281 20.8844 42.6224 20.8906 43.217C20.8977 43.8114 20.8909 44.406 20.8672 45C20.8752 44.703 20.8784 44.4057 20.8784 44.1087C20.8772 43.8116 20.8746 43.5143 20.8678 43.2173C20.8553 42.6233 20.8298 42.0296 20.7892 41.4367C20.78 41.2884 20.7666 41.1405 20.7554 40.9923C20.7411 40.8443 20.7299 40.6964 20.713 40.5488C20.683 40.2535 20.6439 39.9587 20.5946 39.6666C20.5436 39.3747 20.4725 39.0862 20.3829 38.8032C20.2936 38.5202 20.186 38.2426 20.0579 37.9739C19.8037 37.4364 19.471 36.9312 19.0561 36.4973C18.8477 36.2817 18.6205 36.0827 18.3723 35.911C18.1238 35.74 17.8575 35.5934 17.5764 35.4795C17.0138 35.253 16.3949 35.1591 15.7885 35.2142C15.1835 35.2696 14.6082 35.4282 14.1168 35.7724C14.3828 36.417 14.8517 36.9597 15.4409 37.3575C15.5889 37.4564 15.744 37.5449 15.9047 37.6226C16.0658 37.6994 16.233 37.7648 16.4044 37.8176C16.7472 37.923 17.106 37.9793 17.4655 37.9819C17.6452 37.9833 17.8249 37.971 18.0022 37.945L18.0686 37.9353L18.1348 37.9225L18.2667 37.8962C18.3533 37.8733 18.4411 37.8545 18.5259 37.8256C18.6119 37.8008 18.6952 37.7682 18.7792 37.7374C18.8207 37.7211 18.8613 37.7025 18.9025 37.6851C18.923 37.6763 18.9438 37.668 18.9639 37.6583L19.0241 37.6289C19.0639 37.6089 19.1051 37.5909 19.1439 37.5689L19.2614 37.5049C19.3002 37.4829 19.3379 37.4592 19.3764 37.4364C19.415 37.4141 19.4523 37.3895 19.4894 37.365C19.6395 37.2684 19.7827 37.1619 19.9218 37.0505C20.0614 36.9397 20.1961 36.8221 20.328 36.7018C20.5926 36.4616 20.8446 36.2075 21.102 35.957C21.3591 35.7063 21.6207 35.4575 21.9006 35.2267C22.04 35.1108 22.1859 35.0014 22.3357 34.8972C22.4854 34.7929 22.6435 34.699 22.8048 34.6119C23.1289 34.4402 23.4723 34.3031 23.8267 34.2015C24.1817 34.1021 24.547 34.0361 24.9159 34.0118C25.6532 33.9644 26.4008 34.0592 27.0965 34.3003C27.7919 34.5405 28.4339 34.9206 28.9724 35.4072L29 35.4321L28.9858 35.4652C28.9093 35.6409 28.8244 35.8131 28.7298 35.9804C28.6332 36.1466 28.5291 36.3086 28.4149 36.4642C28.2993 36.6187 28.1768 36.7684 28.0454 36.9103C27.9129 37.0514 27.7744 37.1873 27.6276 37.3147C27.0407 37.8245 26.3397 38.2095 25.5879 38.4391C24.8362 38.6687 24.0343 38.7452 23.2514 38.6567C22.4685 38.5702 21.707 38.314 21.0383 37.9145L21.006 37.8953L21.0347 37.8719C21.3645 37.6017 21.6661 37.3004 21.973 37.0037C22.2802 36.7081 22.594 36.4142 22.9492 36.1695C23.3027 35.9233 23.6989 35.7354 24.1144 35.6103C24.3222 35.5483 24.5349 35.5003 24.7499 35.4698C24.9646 35.4395 25.1822 35.4247 25.3993 35.4252Z" fill="white"/>
<path d="M25.3993 35.4252C25.1819 35.4272 24.9652 35.4447 24.7508 35.4778C24.5364 35.5109 24.3252 35.5615 24.1191 35.6257C23.7072 35.7557 23.3149 35.945 22.9667 36.1929C22.6165 36.4391 22.3072 36.7344 22.0032 37.0325C21.6999 37.3316 21.3971 37.6197 21.067 37.8953C21.7334 38.2834 22.486 38.5071 23.2594 38.5879C24.0322 38.671 24.8228 38.5907 25.5615 38.3603C26.3005 38.1301 26.9876 37.7471 27.5606 37.2436C28.1335 36.7404 28.6056 36.1746 28.898 35.4838C28.3692 35.008 27.7397 34.637 27.0585 34.4031C26.3773 34.1683 25.6449 34.0769 24.9245 34.1246C24.5639 34.1489 24.2072 34.2143 23.8605 34.312C23.5145 34.4119 23.1794 34.5465 22.8632 34.7147C22.7064 34.8001 22.553 34.8915 22.4065 34.9937C22.2603 35.0959 22.1177 35.203 21.9807 35.3176C21.7058 35.5452 21.4472 35.7922 21.1913 36.0427C20.9351 36.2929 20.6806 36.5468 20.4132 36.7895C20.2794 36.9109 20.1427 37.0297 20.0004 37.1425C19.8583 37.2559 19.7118 37.3644 19.5576 37.4632C19.5194 37.4883 19.4811 37.5135 19.4414 37.5363C19.4019 37.5597 19.3631 37.584 19.323 37.6063L19.2018 37.672C19.1617 37.6945 19.1193 37.7128 19.0781 37.7334L19.0158 37.7637C18.9951 37.7734 18.9734 37.7819 18.9524 37.7911C18.9097 37.8088 18.8678 37.8279 18.8248 37.8448C18.738 37.8768 18.6517 37.9102 18.5627 37.9356C18.4749 37.965 18.3839 37.9847 18.2943 38.0081L18.1576 38.035L18.0891 38.0481L18.02 38.0581C17.8361 38.0847 17.6502 38.0969 17.4643 38.0952C17.0927 38.0918 16.7223 38.033 16.3688 37.9236C16.1921 37.8688 16.0198 37.8011 15.8537 37.7214C15.688 37.6409 15.5281 37.5492 15.376 37.4472C14.7692 37.036 14.2882 36.4545 14.0154 35.7894L14 35.7514L14.0341 35.7277C14.5439 35.3727 15.1568 35.1679 15.7793 35.1148C16.4026 35.0617 17.0381 35.1622 17.6126 35.3975C17.8996 35.5158 18.1712 35.6674 18.4239 35.8433C18.676 36.0201 18.9064 36.224 19.1169 36.4445C19.536 36.888 19.8693 37.4015 20.1231 37.9462C20.2509 38.2183 20.358 38.4993 20.4464 38.7855C20.4917 38.9283 20.5294 39.0731 20.5653 39.2182C20.5985 39.3638 20.6296 39.5103 20.6531 39.6577C20.6996 39.9524 20.7358 40.248 20.7628 40.5445C20.7782 40.6924 20.7883 40.8409 20.8007 40.9891C20.8105 41.1376 20.8224 41.2859 20.8301 41.4344C20.8648 42.0281 20.8844 42.6224 20.8906 43.217C20.8977 43.8114 20.8909 44.406 20.8672 45C20.8752 44.703 20.8784 44.4057 20.8784 44.1087C20.8772 43.8116 20.8746 43.5143 20.8678 43.2173C20.8553 42.6233 20.8298 42.0296 20.7892 41.4367C20.78 41.2884 20.7666 41.1405 20.7554 40.9923C20.7411 40.8443 20.7299 40.6964 20.713 40.5488C20.683 40.2535 20.6439 39.9587 20.5946 39.6666C20.5436 39.3747 20.4725 39.0862 20.3829 38.8032C20.2936 38.5202 20.186 38.2426 20.0579 37.9739C19.8037 37.4364 19.471 36.9312 19.0561 36.4973C18.8477 36.2817 18.6205 36.0827 18.3723 35.911C18.1238 35.74 17.8575 35.5934 17.5764 35.4795C17.0138 35.253 16.3949 35.1591 15.7885 35.2142C15.1835 35.2696 14.6082 35.4282 14.1168 35.7724C14.3828 36.417 14.8517 36.9597 15.4409 37.3575C15.5889 37.4564 15.744 37.5449 15.9047 37.6226C16.0658 37.6994 16.233 37.7648 16.4044 37.8176C16.7472 37.923 17.106 37.9793 17.4655 37.9819C17.6452 37.9833 17.8249 37.971 18.0022 37.945L18.0686 37.9353L18.1348 37.9225L18.2667 37.8962C18.3533 37.8733 18.4411 37.8545 18.5259 37.8256C18.6119 37.8008 18.6952 37.7682 18.7792 37.7374C18.8207 37.7211 18.8613 37.7025 18.9025 37.6851C18.923 37.6763 18.9438 37.668 18.9639 37.6583L19.0241 37.6289C19.0639 37.6089 19.1051 37.5909 19.1439 37.5689L19.2614 37.5049C19.3002 37.4829 19.3379 37.4592 19.3764 37.4364C19.415 37.4141 19.4523 37.3895 19.4894 37.365C19.6395 37.2684 19.7827 37.1619 19.9218 37.0505C20.0614 36.9397 20.1961 36.8221 20.328 36.7018C20.5926 36.4616 20.8446 36.2075 21.102 35.957C21.3591 35.7063 21.6207 35.4575 21.9006 35.2267C22.04 35.1108 22.1859 35.0014 22.3357 34.8972C22.4854 34.7929 22.6435 34.699 22.8048 34.6119C23.1289 34.4402 23.4723 34.3031 23.8267 34.2015C24.1817 34.1021 24.547 34.0361 24.9159 34.0118C25.6532 33.9644 26.4008 34.0592 27.0965 34.3003C27.7919 34.5405 28.4339 34.9206 28.9724 35.4072L29 35.4321L28.9858 35.4652C28.9093 35.6409 28.8244 35.8131 28.7298 35.9804C28.6332 36.1466 28.5291 36.3086 28.4149 36.4642C28.2993 36.6187 28.1768 36.7684 28.0454 36.9103C27.9129 37.0514 27.7744 37.1873 27.6276 37.3147C27.0407 37.8245 26.3397 38.2095 25.5879 38.4391C24.8362 38.6687 24.0343 38.7452 23.2514 38.6567C22.4685 38.5702 21.707 38.314 21.0383 37.9145L21.006 37.8953L21.0347 37.8719C21.3645 37.6017 21.6661 37.3004 21.973 37.0037C22.2802 36.7081 22.594 36.4142 22.9492 36.1695C23.3027 35.9233 23.6989 35.7354 24.1144 35.6103C24.3222 35.5483 24.5349 35.5003 24.7499 35.4698C24.9646 35.4395 25.1822 35.4247 25.3993 35.4252Z" stroke="white" stroke-width="0.68" mask="url(#path-2-outside-1_300_110)"/>
<path d="M44.625 24.5C44.3929 24.5 44.1704 24.5922 44.0063 24.7563C43.8422 24.9204 43.75 25.1429 43.75 25.375V51.625C43.75 51.8571 43.8422 52.0796 44.0063 52.2437C44.1704 52.4078 44.3929 52.5 44.625 52.5H48.125C48.3571 52.5 48.5796 52.4078 48.7437 52.2437C48.9078 52.0796 49 51.8571 49 51.625V25.375C49 25.1429 48.9078 24.9204 48.7437 24.7563C48.5796 24.5922 48.3571 24.5 48.125 24.5H44.625ZM47.25 50.75H45.5V26.25H47.25V50.75Z" fill="white"/>
<path d="M54.25 19.25H50.75C50.5179 19.25 50.2954 19.3422 50.1313 19.5063C49.9672 19.6704 49.875 19.8929 49.875 20.125V51.625C49.875 51.8571 49.9672 52.0796 50.1313 52.2437C50.2954 52.4078 50.5179 52.5 50.75 52.5H54.25C54.4821 52.5 54.7046 52.4078 54.8687 52.2437C55.0328 52.0796 55.125 51.8571 55.125 51.625V20.125C55.125 19.8929 55.0328 19.6704 54.8687 19.5063C54.7046 19.3422 54.4821 19.25 54.25 19.25ZM53.375 50.75H51.625V21H53.375V50.75Z" fill="white"/>
</svg>
