<svg width="56" height="56" viewBox="0 0 56 56" fill="none" xmlns="http://www.w3.org/2000/svg">
<path d="M43.75 42.875C42.3027 42.875 41.125 44.0527 41.125 45.5C41.125 46.9472 42.3027 48.125 43.75 48.125C45.1972 48.125 46.375 46.9472 46.375 45.5C46.375 44.0527 45.1972 42.875 43.75 42.875ZM43.75 46.375C43.267 46.375 42.875 45.983 42.875 45.5C42.875 45.017 43.267 44.625 43.75 44.625C44.233 44.625 44.625 45.017 44.625 45.5C44.625 45.983 44.233 46.375 43.75 46.375Z" fill="white"/>
<path d="M15.75 42.875C14.3027 42.875 13.125 44.0527 13.125 45.5C13.125 46.9472 14.3027 48.125 15.75 48.125C17.1972 48.125 18.375 46.9472 18.375 45.5C18.375 44.0527 17.1972 42.875 15.75 42.875ZM15.75 46.375C15.267 46.375 14.875 45.983 14.875 45.5C14.875 45.017 15.267 44.625 15.75 44.625C16.233 44.625 16.625 45.017 16.625 45.5C16.625 45.983 16.233 46.375 15.75 46.375Z" fill="white"/>
<path d="M52.7065 31.5L51.5392 30.9164L50.3501 23.7816C49.9975 21.6624 48.1819 20.125 46.0346 20.125H36.75C35.3264 20.125 34.0716 20.8189 33.2728 21.875H30.625V13.125H25.375V4.375H13.125V13.125H7.875V21.875H2.625V30.625C1.65987 30.625 0.875 31.4099 0.875 32.375V34.125C0.875 35.0901 1.65987 35.875 2.625 35.875V43.75C2.625 45.1973 3.80275 46.375 5.25 46.375H9.695C10.122 49.3377 12.6709 51.625 15.75 51.625C18.8291 51.625 21.378 49.3377 21.805 46.375H37.695C38.122 49.3377 40.6709 51.625 43.75 51.625C46.8291 51.625 49.378 49.3377 49.805 46.375H52.5C53.9473 46.375 55.125 45.1973 55.125 43.75V35.413C55.125 33.7453 54.1984 32.2472 52.7065 31.5ZM53.375 39.7093L51.625 38.8343V37.625H53.375V39.7093ZM18.375 23.625H20.125V25.375H18.375V23.625ZM21.875 27.125V23.625H23.625V30.625H14.875V23.625H16.625V27.125H21.875ZM32.375 30.625H25.375V23.625H27.125V27.125H32.375V30.625ZM32.375 24.5V25.375H28.875V23.625H32.4634C32.4056 23.9076 32.375 24.2008 32.375 24.5ZM28.875 21.875H25.375H23.625H20.125V14.875H21.875V18.375H27.125V14.875H28.875V21.875ZM23.625 14.875H25.375V16.625H23.625V14.875ZM18.375 6.125H20.125V7.875H18.375V6.125ZM14.875 6.125H16.625V9.625H21.875V6.125H23.625V13.125H20.125H18.375H14.875V6.125ZM13.125 14.875H14.875V16.625H13.125V14.875ZM9.625 14.875H11.375V18.375H16.625V14.875H18.375V21.875H14.875H13.125H9.625V14.875ZM7.875 23.625H9.625V25.375H7.875V23.625ZM4.375 23.625H6.125V27.125H11.375V23.625H13.125V30.625H4.375V23.625ZM2.625 32.375H32.375V34.125H2.625V32.375ZM4.375 39.375H7.62912L7.19162 41.125H4.375V39.375ZM4.375 43.75V42.875H8.55838L9.87088 37.625H4.375V35.875H32.375V44.625H21.805C21.378 41.6623 18.8291 39.375 15.75 39.375C12.6709 39.375 10.122 41.6623 9.695 44.625H5.25C4.767 44.625 4.375 44.233 4.375 43.75ZM15.75 49.875C13.3376 49.875 11.375 47.9124 11.375 45.5C11.375 43.0876 13.3376 41.125 15.75 41.125C18.1624 41.125 20.125 43.0876 20.125 45.5C20.125 47.9124 18.1624 49.875 15.75 49.875ZM42.875 30.625H46.375V32.375H45.5H44.625C43.6599 32.375 42.875 31.5901 42.875 30.625ZM42.875 28.875C41.9099 28.875 41.125 29.6599 41.125 30.625C41.125 31.2655 41.3105 31.8579 41.6115 32.375H37.625V25.375H45.5403L46.1956 28.875H42.875ZM37.625 34.125H44.625H45.5H46.375V39.9744C45.5779 39.5946 44.6898 39.375 43.75 39.375C40.6709 39.375 38.122 41.6623 37.695 44.625H37.625V34.125ZM43.75 49.875C41.3376 49.875 39.375 47.9124 39.375 45.5C39.375 43.0876 41.3376 41.125 43.75 41.125C46.1624 41.125 48.125 43.0876 48.125 45.5C48.125 47.9124 46.1624 49.875 43.75 49.875ZM52.5 44.625H49.805C49.616 43.3107 49.0122 42.1295 48.125 41.2221V29.75L47.2614 25.0548C47.1074 24.227 46.3838 23.625 45.5411 23.625H37.625C36.6599 23.625 35.875 24.4099 35.875 25.375V44.625H34.125V24.5C34.125 23.0527 35.3027 21.875 36.75 21.875H46.0346C47.3235 21.875 48.412 22.7981 48.6237 24.0686L49.9599 32.0836L51.9234 33.0654C52.8185 33.5134 53.375 34.4129 53.375 35.413V35.875H49.875V39.9157L53.375 41.6657V43.75C53.375 44.233 52.983 44.625 52.5 44.625Z" fill="white"/>
</svg>
